<svg xmlns="http://www.w3.org/2000/svg" viewBox="0 0 227.87 75.8"><defs><style>.cls-1{fill:#9b2800;}</style></defs><g id="Layer_2" data-name="Layer 2"><g id="Layer_1-2" data-name="Layer 1"><path class="cls-1" d="M39.4,46.3h-.7c.1,7.9-4,13.3-11.3,13.3-7.9,0-13.1-7-13.1-17.5-.1-11.6,4.1-18.2,12-18.2,5,0,11.6,3.8,12.4,14.2h.7c-.8-11.7-8.9-16.3-17.9-16.3C10.3,21.8,0,29,0,42.1,0,55.6,10.7,62.9,22.3,62.9,33.1,62.9,39.4,56.3,39.4,46.3Z"/><path class="cls-1" d="M41.88,7.6V49.4a13.42,13.42,0,0,0,13.4,13.5V21A13.4,13.4,0,0,0,41.88,7.6Z"/><path class="cls-1" d="M97.47,48.1h-.7c-.9,8.9-6.3,12.6-12.5,12.6-7.8,0-12.4-4.7-12.4-18.2H97c.4-14.7-8.4-20.7-18.5-20.7-12.2,0-20.8,8.2-20.8,20.5s9.2,20.6,22.7,20.6C89.47,62.9,96.57,58.4,97.47,48.1ZM78.37,22.6c6,0,5.6,12.5,5.6,19.1H72C72,29.4,73.77,22.6,78.37,22.6Z"/><path class="cls-1" d="M127.52,63c9.8,0,16-7.5,16-20.7,0-12.9-6.2-20.3-15.9-20.3-7.2,0-12.3,4.5-14.2,12.7a11.86,11.86,0,0,0-11.9-11.9H100V62.9a12,12,0,0,0,11.9,11.9h1.5V50.1C115.32,58.5,120.32,63,127.52,63Zm-14.1-20.7c0-10.3,4.2-17.2,8.4-17.2,4.5,0,7.5,6.8,7.5,17.2s-3.1,17.5-7.5,17.5C117.62,59.8,113.42,52.8,113.42,42.3Z"/><path class="cls-1" d="M160.08,9.8a7.4,7.4,0,0,0-14.8,0,7.4,7.4,0,0,0,14.8,0Zm-14,13.6v26a13.34,13.34,0,0,0,13.4,13.4v-26A13.4,13.4,0,0,0,146.08,23.4Z"/><path class="cls-1" d="M191.47,24.2v-.8h-11.2v-11c0-6.5,3.7-10.3,8.9-10.3a8.47,8.47,0,0,1,8.5,6.1l.7-.3c-2-5.1-6.3-7.9-13.1-7.9-9.5,0-18.5,5.5-18.5,22.1v1.3h-6.7v.8h6.7l.1,25.4a13.38,13.38,0,0,0,13.4,13.3V24.2Z"/><path class="cls-1" d="M227,23.4l-11.6,27L209,35.8a20.8,20.8,0,0,0-18.9-12.4h-.5L209.17,65l-4.6,10.8h.9l22.4-52.4Z"/></g></g></svg>