<svg width="500" height="500" viewBox="0 0 500 500" fill="none" xmlns="http://www.w3.org/2000/svg">
<path d="M102.93 388.54H67.7699V399.73H102.93V388.54Z" fill="#EBEBEB"/>
<path d="M126.69 181.37H91.5299V192.56H126.69V181.37Z" fill="#EBEBEB"/>
<path d="M83.32 413.84C77.46 413.94 62.69 414.19 57.03 414.25H48.16H47.71V413.79V402.6V402.1H48.21L65.79 402.17C70.16 402.17 78.99 402.3 83.37 402.36H83.61V402.6L83.38 413.79L83.32 413.84ZM83.32 413.84L83.08 402.65L83.32 402.89C78.93 402.95 70.12 403.04 65.74 403.08L48.16 403.15L48.66 402.65V413.84L48.2 413.38L56.91 413.43C62.48 413.49 77.59 413.74 83.36 413.84H83.32Z" fill="#EBEBEB"/>
<path d="M392.11 316.27C386.26 316.37 371.49 316.62 365.82 316.68H356.96H356.5V316.22V305.03V304.53H357L374.57 304.6C378.95 304.6 387.78 304.73 392.15 304.79H392.4V305.03L392.16 316.22L392.11 316.27ZM392.11 316.27L391.88 305.08L392.11 305.32C387.73 305.38 378.92 305.47 374.53 305.51L356.96 305.58L357.46 305.08V316.27L357.01 315.81H365.72C371.29 315.88 386.4 316.13 392.16 316.23L392.11 316.27Z" fill="#EBEBEB"/>
<path d="M372.5 330.38C366.64 330.48 351.87 330.73 346.21 330.79H337.34H336.89V330.33L336.84 319.14V318.64H337.34L354.92 318.71C359.3 318.71 368.12 318.84 372.5 318.9H372.74V319.14L372.5 330.33V330.38ZM372.5 330.38L372.26 319.19L372.5 319.43C368.12 319.49 359.31 319.58 354.92 319.62L337.34 319.69L337.84 319.19V330.38L337.38 329.92H346.09C351.67 329.99 366.78 330.24 372.54 330.34L372.5 330.38Z" fill="#EBEBEB"/>
<path d="M352.97 305.08H317.81V316.27H352.97V305.08Z" fill="#EBEBEB"/>
<path d="M451.84 402.65H416.68V413.84H451.84V402.65Z" fill="#EBEBEB"/>
<path d="M432.23 44.93H397.07V56.12H432.23V44.93Z" fill="#EBEBEB"/>
<path d="M451.84 70.23C445.98 70.33 431.21 70.58 425.55 70.65H416.68H416.23V70.19L416.18 59V58.5H416.68L434.26 58.57C438.64 58.57 447.46 58.7 451.84 58.77H452.08V59L451.84 70.19V70.23ZM451.84 70.23L451.6 59L451.84 59.24C447.45 59.3 438.65 59.4 434.26 59.43L416.68 59.5L417.18 59V70.19L416.72 69.74H425.43C431.01 69.8 446.12 70.06 451.88 70.15L451.84 70.23Z" fill="#EBEBEB"/>
<path d="M83.32 56.12C77.46 56.22 62.69 56.47 57.03 56.54H48.16H47.71V56.08V44.89V44.39H48.21L65.79 44.46C70.16 44.46 78.99 44.59 83.37 44.66H83.61V44.89L83.38 56.08L83.32 56.12ZM83.32 56.12L83.08 44.93L83.32 45.17C78.93 45.23 70.12 45.33 65.74 45.36L48.16 45.43L48.66 44.93V56.12L48.2 55.67H56.91C62.48 55.73 77.59 55.99 83.36 56.08L83.32 56.12Z" fill="#EBEBEB"/>
<path d="M318.63 297.15V455.41H414.3V297.15H318.63ZM405.63 397H327.33V355.8H405.63V397ZM405.63 346H327.33V304.8H405.63V346Z" fill="#EBEBEB"/>
<path d="M452.56 297.15H414.3V455.4H452.56V297.15Z" fill="#DBDBDB"/>
<path d="M345.92 304.79H327.31V345.99H345.92V304.79Z" fill="#DBDBDB"/>
<path d="M406 445.85H327.43V405.85H406V445.85ZM328.19 445.1H405.25V406.57H328.18L328.19 445.1Z" fill="#DBDBDB"/>
<path d="M371.17 417.24H355.72V425.06H371.17V417.24Z" fill="#DBDBDB"/>
<path d="M376.11 424.85H359.91V417.46H376.11V424.85ZM360.66 424.1H375.36V418.21H360.66V424.1Z" fill="#DBDBDB"/>
<path d="M345.92 355.81H327.31V397.01H345.92V355.81Z" fill="#DBDBDB"/>
<path d="M73.95 0H72.95V84.93H73.95V0Z" fill="#C7C7C7"/>
<path d="M102.94 113.36L100.57 118.57H46.32L43.96 113.36L67.05 97.37H79.85L102.94 113.36Z" fill="#EBEBEB"/>
<path d="M81.45 81.97L79.85 97.37H67.05L65.45 81.97H81.45Z" fill="#DBDBDB"/>
<path d="M102.94 113.36L100.57 118.58H46.32L43.95 113.36H102.94Z" fill="#DBDBDB"/>
<path d="M137.27 0H136.27V68.11H137.27V0Z" fill="#C7C7C7"/>
<path d="M166.26 96.54L163.89 101.75H109.65L107.28 96.54L130.38 80.55H143.17L166.26 96.54Z" fill="#EBEBEB"/>
<path d="M144.77 65.15L143.17 80.55H130.38L128.77 65.15H144.77Z" fill="#DBDBDB"/>
<path d="M166.26 96.54L163.89 101.75H109.64L107.28 96.54H166.26Z" fill="#DBDBDB"/>
<path d="M415 392.52C415 392.52 424.19 359.52 431.53 348.32C438.87 337.12 452.53 324.81 452.53 324.81C452.53 324.81 452.24 375.68 415 392.52Z" fill="#244282"/>
<path d="M413.25 392.57C413.25 392.57 429.78 362.15 424.98 332.65C420.18 303.15 415.04 292.65 415.04 292.65C415.04 292.65 389.07 338.53 413.25 392.57Z" fill="#244282"/>
<path d="M406.47 344.74C407.869 353.102 410.004 361.324 412.85 369.31C412.85 358.48 413.1 347.66 413.39 336.83C411.533 330.262 410.485 323.492 410.27 316.67C410.27 316.47 410.56 316.49 410.58 316.67C411.101 322.512 412.067 328.305 413.47 334C413.723 325.073 414.017 316.143 414.35 307.21C414.35 307.06 414.58 307.07 414.58 307.21C414.58 321.16 414.58 335.11 414.48 349.06C416.494 343.664 418.089 338.121 419.25 332.48H419.34C418.85 338.99 416.87 345.29 414.47 351.34C414.4 360.25 414.31 369.17 414.11 378.08C416.9 368.6 419.89 359.42 420.7 349.41C420.707 349.388 420.721 349.368 420.74 349.354C420.759 349.34 420.782 349.333 420.805 349.333C420.829 349.333 420.851 349.34 420.87 349.354C420.889 349.368 420.903 349.388 420.91 349.41C420.69 360.41 417.84 371.67 414.2 382.06C414.163 382.163 414.097 382.253 414.01 382.32C413.93 385.58 413.837 388.837 413.73 392.09C413.716 392.176 413.671 392.255 413.604 392.312C413.538 392.368 413.453 392.399 413.365 392.399C413.277 392.399 413.193 392.368 413.126 392.312C413.059 392.255 413.014 392.176 413 392.09C412.87 385.43 412.83 378.76 412.84 372.09C409.238 363.364 407.041 354.123 406.33 344.71C406.32 344.68 406.46 344.66 406.47 344.74Z" fill="#263238"/>
<path d="M407.6 340C408.179 342.635 408.567 345.309 408.76 348C408.76 348.021 408.752 348.042 408.737 348.057C408.722 348.072 408.701 348.08 408.68 348.08C408.659 348.08 408.639 348.072 408.624 348.057C408.609 348.042 408.6 348.021 408.6 348C407.957 345.369 407.503 342.696 407.24 340C407.22 339.87 407.56 339.83 407.6 340Z" fill="#263238"/>
<path d="M417.26 317.8C417.26 317.71 417.42 317.74 417.42 317.8C417.394 319.679 417.115 321.546 416.59 323.35C416.59 323.49 416.34 323.42 416.37 323.28C416.73 321.47 417 319.63 417.26 317.8Z" fill="#263238"/>
<path d="M407.22 392.57C407.22 392.57 407.89 360.81 398.78 345.03C389.67 329.25 374.56 321.2 374.56 321.2C374.56 321.2 380.65 377.18 407.22 392.57Z" fill="#244282"/>
<path d="M390.61 365.41C394.277 370.942 398.401 376.157 402.94 381C401.12 374.5 399.02 368.113 396.64 361.84C391.53 357.37 386.46 352.73 383.33 346.6C383.324 346.581 383.325 346.56 383.332 346.541C383.339 346.522 383.352 346.506 383.37 346.496C383.387 346.486 383.407 346.481 383.427 346.484C383.447 346.486 383.466 346.496 383.48 346.51C386.85 351.94 391.35 356.28 396.09 360.46C392.44 350.999 388.205 341.775 383.41 332.84C383.383 332.794 383.376 332.739 383.391 332.687C383.405 332.635 383.439 332.592 383.485 332.565C383.531 332.538 383.586 332.531 383.638 332.546C383.69 332.56 383.734 332.594 383.76 332.64C386.677 337.319 389.331 342.156 391.71 347.13C390.86 343.74 390.18 340.27 389.3 336.9C389.306 336.885 389.316 336.871 389.329 336.862C389.343 336.853 389.359 336.848 389.375 336.848C389.391 336.848 389.407 336.853 389.421 336.862C389.434 336.871 389.444 336.885 389.45 336.9C391.237 341.222 392.493 345.745 393.19 350.37C396.371 357.413 399.045 364.675 401.19 372.1C400.95 367.34 400.65 362.6 400.19 357.85C400.19 357.76 400.33 357.74 400.35 357.85C401.369 363.12 401.832 368.483 401.73 373.85C403.063 378.59 404.167 383.373 405.04 388.2C405.04 388.33 404.87 388.39 404.84 388.25C404.34 386.25 403.84 384.25 403.26 382.25C403.26 382.25 403.18 382.25 403.15 382.2C398.27 377.31 393.63 371.73 390.57 365.49C390.55 365.41 390.59 365.38 390.61 365.41Z" fill="#263238"/>
<path d="M380.06 339.57C381.06 340.67 382 341.82 382.99 342.95C383.938 343.904 384.814 344.927 385.61 346.01C385.617 346.02 385.621 346.032 385.62 346.044C385.619 346.056 385.614 346.067 385.605 346.075C385.597 346.084 385.586 346.089 385.574 346.09C385.562 346.091 385.55 346.087 385.54 346.08C384.404 345.227 383.394 344.217 382.54 343.08C381.579 342.019 380.709 340.878 379.94 339.67C379.86 339.59 380 339.49 380.06 339.57Z" fill="#263238"/>
<path d="M433.19 394.89L432.04 409.89L428.58 455.37H398.4L394.94 409.89L393.79 394.89H433.19Z" fill="#37474F"/>
<path d="M433.19 394.89L432.49 404.04L394.61 405.56L393.79 394.89H433.19Z" fill="#263238"/>
<path d="M391.11 399.04H435.87V387.51H391.11V399.04Z" fill="#37474F"/>
<path d="M47.4399 455.41C177.21 454.79 322.79 454.79 452.56 455.41C322.79 456.02 177.21 456.02 47.4399 455.41Z" fill="#263238"/>
<path d="M393.34 57.56H106.66V277.01H393.34V57.56Z" fill="white"/>
<path d="M393.33 277C393.33 277.08 106.58 277.09 106.52 277.15C106.46 277.21 106.52 57.6 106.43 57.55V57.32H106.66C106.66 57.32 393.39 57.49 393.43 57.45C393.47 57.41 393.28 276.93 393.33 277ZM393.33 277C393.33 277 393.12 57.13 393.33 57.65L106.66 57.78L106.89 57.55C106.89 57.55 106.95 277.55 106.66 276.86L393.33 277Z" fill="#263238"/>
<path d="M393.34 57.56H106.66V65.9H393.34V57.56Z" fill="#263238"/>
<path d="M114.7 61.73C114.7 62.0614 114.602 62.3854 114.418 62.6613C114.235 62.9371 113.973 63.1524 113.668 63.2801C113.362 63.4079 113.025 63.4423 112.7 63.379C112.374 63.3158 112.075 63.1578 111.839 62.9248C111.603 62.6919 111.442 62.3944 111.375 62.0699C111.308 61.7453 111.338 61.4082 111.462 61.1008C111.586 60.7935 111.799 60.5298 112.072 60.3428C112.346 60.1558 112.669 60.054 113 60.05C113.222 60.0474 113.443 60.0889 113.649 60.1721C113.855 60.2554 114.043 60.3787 114.201 60.535C114.359 60.6912 114.485 60.8773 114.57 61.0825C114.656 61.2876 114.7 61.5077 114.7 61.73Z" fill="#244282"/>
<path d="M121.56 61.73C121.56 62.0623 121.461 62.3871 121.277 62.6634C121.092 62.9396 120.83 63.155 120.523 63.2821C120.216 63.4093 119.878 63.4425 119.552 63.3777C119.226 63.3129 118.927 63.1529 118.692 62.9179C118.457 62.683 118.297 62.3836 118.232 62.0578C118.167 61.7319 118.201 61.3941 118.328 61.0871C118.455 60.7801 118.67 60.5177 118.947 60.3331C119.223 60.1485 119.548 60.05 119.88 60.05C120.101 60.05 120.319 60.0935 120.523 60.1779C120.727 60.2623 120.912 60.3861 121.068 60.5421C121.224 60.6981 121.348 60.8833 121.432 61.0871C121.517 61.2909 121.56 61.5094 121.56 61.73Z" fill="white"/>
<path d="M128.41 61.73C128.41 62.0623 128.312 62.3871 128.127 62.6634C127.942 62.9396 127.68 63.155 127.373 63.2821C127.066 63.4093 126.728 63.4425 126.402 63.3777C126.076 63.3129 125.777 63.1529 125.542 62.9179C125.307 62.683 125.147 62.3836 125.082 62.0578C125.018 61.7319 125.051 61.3941 125.178 61.0871C125.305 60.7801 125.52 60.5177 125.797 60.3331C126.073 60.1485 126.398 60.05 126.73 60.05C127.176 60.05 127.603 60.227 127.918 60.5421C128.233 60.8571 128.41 61.2844 128.41 61.73Z" fill="#455A64"/>
<path d="M106.66 83.22C198.49 82.65 301.5 82.65 393.33 83.22C301.5 83.79 198.49 83.79 106.66 83.22Z" fill="#DBDBDB"/>
<path d="M106.66 100.54C198.49 99.97 301.5 99.97 393.33 100.54C301.5 101.11 198.49 101.11 106.66 100.54Z" fill="#DBDBDB"/>
<path d="M119.34 73H118.16V77C118.16 77.1088 118.117 77.213 118.04 77.2899C117.963 77.3668 117.859 77.41 117.75 77.41C117.641 77.41 117.537 77.3668 117.46 77.2899C117.383 77.213 117.34 77.1088 117.34 77V73H116.17C116.06 72.9974 115.956 72.952 115.879 72.8735C115.803 72.795 115.76 72.6897 115.76 72.58C115.76 72.4713 115.803 72.367 115.88 72.2901C115.957 72.2132 116.061 72.17 116.17 72.17H119.34C119.449 72.17 119.553 72.2132 119.63 72.2901C119.707 72.367 119.75 72.4713 119.75 72.58C119.748 72.6889 119.704 72.7929 119.628 72.8708C119.552 72.9488 119.449 72.995 119.34 73Z" fill="#263238"/>
<path d="M120.23 76.85C119.898 76.4952 119.715 76.026 119.72 75.54C119.728 75.0595 119.909 74.598 120.23 74.24C120.394 74.0638 120.592 73.9231 120.812 73.8267C121.032 73.7304 121.27 73.6804 121.51 73.68C121.746 73.679 121.98 73.7285 122.196 73.8251C122.411 73.9216 122.604 74.0631 122.76 74.24C123.093 74.5908 123.28 75.0561 123.28 75.54C123.285 75.782 123.242 76.0227 123.153 76.2477C123.063 76.4727 122.93 76.6775 122.76 76.85C122.604 77.0282 122.412 77.1712 122.196 77.2695C121.981 77.3678 121.747 77.4191 121.51 77.42C121.269 77.4177 121.031 77.3659 120.811 77.2679C120.591 77.1698 120.393 77.0276 120.23 76.85ZM120.53 75.54C120.524 75.8269 120.62 76.1066 120.8 76.33C120.99 76.5135 121.246 76.6142 121.51 76.61C121.768 76.609 122.015 76.5087 122.2 76.33C122.391 76.1113 122.494 75.83 122.49 75.54C122.492 75.2564 122.388 74.9821 122.2 74.77C122.013 74.5868 121.762 74.4842 121.5 74.4842C121.238 74.4842 120.987 74.5868 120.8 74.77C120.621 74.9864 120.526 75.2594 120.53 75.54Z" fill="#263238"/>
<path d="M125.05 73.38C125.129 73.3694 125.21 73.3758 125.286 73.3988C125.363 73.4218 125.433 73.4609 125.493 73.5135C125.553 73.566 125.602 73.6308 125.635 73.7035C125.668 73.7762 125.685 73.8552 125.685 73.935C125.685 74.0148 125.668 74.0938 125.635 74.1665C125.602 74.2392 125.553 74.304 125.493 74.3566C125.433 74.4091 125.363 74.4482 125.286 74.4712C125.21 74.4942 125.129 74.5006 125.05 74.49C124.916 74.4719 124.792 74.4057 124.703 74.3036C124.614 74.2016 124.565 74.0706 124.565 73.935C124.565 73.7994 124.614 73.6684 124.703 73.5664C124.792 73.4643 124.916 73.3981 125.05 73.38ZM125.05 76.38C125.129 76.3694 125.21 76.3758 125.286 76.3988C125.363 76.4218 125.433 76.4609 125.493 76.5135C125.553 76.566 125.602 76.6308 125.635 76.7035C125.668 76.7762 125.685 76.8552 125.685 76.935C125.685 77.0148 125.668 77.0938 125.635 77.1665C125.602 77.2392 125.553 77.304 125.493 77.3566C125.433 77.4091 125.363 77.4482 125.286 77.4712C125.21 77.4942 125.129 77.5006 125.05 77.49C124.916 77.4719 124.792 77.4057 124.703 77.3036C124.614 77.2016 124.565 77.0706 124.565 76.935C124.565 76.7994 124.614 76.6684 124.703 76.5664C124.792 76.4643 124.916 76.3981 125.05 76.38Z" fill="#263238"/>
<path d="M350.36 74.72C350.363 73.9977 350.652 73.3059 351.163 72.7961C351.675 72.2862 352.368 72 353.09 72C353.709 71.9977 354.311 72.2018 354.8 72.58C354.878 72.6528 354.927 72.7521 354.936 72.8587C354.945 72.9652 354.914 73.0712 354.849 73.1562C354.784 73.2411 354.69 73.2988 354.585 73.318C354.479 73.3372 354.371 73.3165 354.28 73.26C353.945 72.9854 353.523 72.8399 353.09 72.85C352.593 72.854 352.115 73.043 351.75 73.38C351.577 73.5498 351.44 73.7521 351.345 73.9752C351.251 74.1982 351.202 74.4378 351.2 74.68C351.2 74.9211 351.248 75.1597 351.343 75.3815C351.437 75.6032 351.576 75.8034 351.75 75.97C352.114 76.3107 352.592 76.5033 353.09 76.51C353.523 76.5183 353.944 76.3731 354.28 76.1C354.371 76.0435 354.479 76.0228 354.585 76.042C354.69 76.0612 354.784 76.1189 354.849 76.2038C354.914 76.2888 354.945 76.3948 354.936 76.5014C354.927 76.6079 354.878 76.7072 354.8 76.78C354.311 77.1582 353.709 77.3623 353.09 77.36C352.381 77.3629 351.698 77.0885 351.188 76.5953C350.678 76.1021 350.381 75.4292 350.36 74.72Z" fill="#263238"/>
<path d="M355.91 75.54C355.918 75.044 356.121 74.5709 356.474 74.2229C356.828 73.8749 357.304 73.6799 357.8 73.68C358.228 73.6828 358.643 73.827 358.98 74.09C359.06 74.1549 359.113 74.2475 359.128 74.3494C359.142 74.4513 359.118 74.555 359.06 74.64C358.995 74.7233 358.9 74.7775 358.795 74.7906C358.69 74.8037 358.584 74.7747 358.5 74.71C358.299 74.557 358.053 74.4729 357.8 74.47C357.516 74.47 357.244 74.5827 357.044 74.7834C356.843 74.9841 356.73 75.2562 356.73 75.54C356.73 75.8238 356.843 76.096 357.044 76.2966C357.244 76.4973 357.516 76.61 357.8 76.61C358.053 76.6051 358.298 76.5211 358.5 76.37C358.585 76.3064 358.692 76.279 358.797 76.294C358.902 76.309 358.996 76.3651 359.06 76.45C359.121 76.5326 359.148 76.6349 359.137 76.7367C359.126 76.8384 359.077 76.9324 359 77C358.657 77.2514 358.245 77.391 357.82 77.4C357.321 77.4054 356.839 77.2127 356.481 76.8642C356.123 76.5156 355.918 76.0395 355.91 75.54Z" fill="#263238"/>
<path d="M367.55 74.72C367.555 73.9985 367.845 73.3082 368.356 72.799C368.867 72.2897 369.559 72.0026 370.28 72C370.902 71.9978 371.507 72.2017 372 72.58C372.078 72.6528 372.127 72.7521 372.136 72.8587C372.145 72.9652 372.114 73.0713 372.049 73.1562C371.984 73.2411 371.89 73.2988 371.785 73.318C371.679 73.3372 371.571 73.3165 371.48 73.26C371.14 72.987 370.716 72.8419 370.28 72.85C369.783 72.854 369.305 73.043 368.94 73.38C368.598 73.7265 368.404 74.1929 368.4 74.68C368.4 74.9201 368.448 75.1578 368.54 75.3793C368.633 75.6007 368.769 75.8016 368.94 75.97C369.304 76.3107 369.782 76.5033 370.28 76.51C370.716 76.5181 371.14 76.373 371.48 76.1C371.571 76.0435 371.679 76.0229 371.785 76.0421C371.89 76.0613 371.984 76.1189 372.049 76.2039C372.114 76.2888 372.145 76.3948 372.136 76.5014C372.127 76.6079 372.078 76.7072 372 76.78C371.507 77.1583 370.902 77.3623 370.28 77.36C369.571 77.3604 368.89 77.0852 368.381 76.5925C367.871 76.0998 367.573 75.4283 367.55 74.72Z" fill="#263238"/>
<path d="M373.14 74.72C373.145 73.9985 373.435 73.3082 373.946 72.799C374.457 72.2897 375.149 72.0026 375.87 72C376.492 71.9992 377.096 72.2031 377.59 72.58C377.668 72.6528 377.717 72.7521 377.726 72.8587C377.735 72.9652 377.704 73.0712 377.639 73.1562C377.574 73.2411 377.48 73.2988 377.375 73.318C377.269 73.3372 377.161 73.3165 377.07 73.26C376.731 72.987 376.306 72.8419 375.87 72.85C375.373 72.854 374.895 73.043 374.53 73.38C374.188 73.7265 373.994 74.1929 373.99 74.68C373.99 74.9201 374.038 75.1578 374.13 75.3793C374.223 75.6007 374.359 75.8015 374.53 75.97C374.894 76.3107 375.372 76.5033 375.87 76.51C376.306 76.5164 376.73 76.3715 377.07 76.1C377.161 76.0435 377.269 76.0228 377.375 76.042C377.48 76.0612 377.574 76.1189 377.639 76.2038C377.704 76.2888 377.735 76.3948 377.726 76.5014C377.717 76.6079 377.668 76.7072 377.59 76.78C377.096 77.1569 376.492 77.3608 375.87 77.36C375.161 77.3629 374.478 77.0885 373.968 76.5953C373.458 76.1021 373.161 75.4292 373.14 74.72Z" fill="#263238"/>
<path d="M383.06 72.84C383.542 73.3473 383.81 74.0203 383.81 74.72C383.81 75.4197 383.542 76.0927 383.06 76.6C382.835 76.847 382.562 77.0453 382.258 77.1829C381.953 77.3205 381.624 77.3944 381.29 77.4C380.947 77.3967 380.608 77.3241 380.293 77.1866C379.979 77.0492 379.695 76.8496 379.46 76.6C378.991 76.0861 378.731 75.4156 378.731 74.72C378.731 74.0244 378.991 73.3539 379.46 72.84C379.694 72.5885 379.977 72.3878 380.292 72.2502C380.607 72.1125 380.946 72.041 381.29 72.04C381.624 72.0433 381.954 72.1161 382.259 72.2538C382.564 72.3915 382.837 72.5912 383.06 72.84ZM383 74.72C383.003 74.2373 382.821 73.7718 382.49 73.42C382.343 73.2547 382.163 73.1221 381.961 73.0308C381.76 72.9395 381.541 72.8915 381.32 72.89C381.092 72.8871 380.866 72.9329 380.658 73.0243C380.449 73.1157 380.262 73.2506 380.11 73.42C379.789 73.7749 379.611 74.2364 379.611 74.715C379.611 75.1936 379.789 75.6551 380.11 76.01C380.262 76.1807 380.448 76.3172 380.657 76.4103C380.865 76.5034 381.092 76.551 381.32 76.55C381.542 76.5466 381.761 76.4968 381.962 76.4038C382.164 76.3108 382.343 76.1767 382.49 76.01C382.819 75.6613 383.002 75.1995 383 74.72Z" fill="#263238"/>
<path d="M116 92.65C116.033 92.6106 116.073 92.578 116.119 92.5541C116.164 92.5302 116.214 92.5155 116.265 92.5109C116.316 92.5062 116.367 92.5117 116.416 92.527C116.465 92.5423 116.511 92.5671 116.55 92.6C116.947 92.9418 117.447 93.1422 117.97 93.17C118.302 93.1766 118.627 93.0787 118.9 92.89C118.993 92.8346 119.07 92.7573 119.126 92.6649C119.182 92.5725 119.214 92.4678 119.22 92.36C119.218 92.2752 119.194 92.1924 119.15 92.12C119.096 92.03 119.02 91.9545 118.93 91.9C118.62 91.7249 118.282 91.6064 117.93 91.55C117.587 91.4925 117.251 91.3951 116.93 91.26C116.65 91.1358 116.411 90.9347 116.24 90.68C116.128 90.4962 116.07 90.2851 116.07 90.07C116.077 89.8539 116.135 89.6424 116.239 89.453C116.344 89.2635 116.491 89.1014 116.67 88.98C117.046 88.7203 117.493 88.584 117.95 88.59C118.537 88.6198 119.101 88.8253 119.57 89.18C119.653 89.2369 119.712 89.324 119.732 89.4228C119.753 89.5217 119.734 89.6246 119.68 89.71C119.654 89.7534 119.619 89.7909 119.577 89.8202C119.536 89.8495 119.489 89.8699 119.439 89.8803C119.389 89.8906 119.338 89.8906 119.288 89.8802C119.239 89.8698 119.192 89.8493 119.15 89.82C118.807 89.5449 118.389 89.3809 117.95 89.35C117.654 89.3441 117.364 89.4316 117.12 89.6C117.039 89.6499 116.971 89.7187 116.922 89.8006C116.874 89.8824 116.845 89.9749 116.84 90.07C116.819 90.1384 116.819 90.2117 116.84 90.28C116.894 90.3553 116.962 90.4198 117.04 90.47C117.328 90.6354 117.643 90.7472 117.97 90.8C118.315 90.8621 118.651 90.9662 118.97 91.11C119.272 91.2393 119.53 91.455 119.71 91.73C119.831 91.9176 119.894 92.1368 119.89 92.36C119.882 92.5888 119.82 92.8124 119.709 93.0124C119.598 93.2124 119.44 93.383 119.25 93.51C118.852 93.7972 118.371 93.948 117.88 93.94C117.179 93.9057 116.508 93.6423 115.97 93.19C115.907 93.1126 115.874 93.0142 115.88 92.9142C115.886 92.8142 115.928 92.7199 116 92.65Z" fill="#263238"/>
<path d="M122.51 93.94C122.108 93.9272 121.727 93.7599 121.446 93.473C121.165 93.1861 121.005 92.8018 121 92.4V90.62C121.003 90.5157 121.046 90.4165 121.121 90.3436C121.195 90.2707 121.296 90.23 121.4 90.23C121.503 90.23 121.603 90.2711 121.676 90.3442C121.749 90.4174 121.79 90.5166 121.79 90.62V92.4C121.79 92.4993 121.81 92.5977 121.848 92.6893C121.886 92.781 121.942 92.8641 122.013 92.9339C122.084 93.0037 122.168 93.0587 122.26 93.0958C122.352 93.1329 122.451 93.1513 122.55 93.15C122.753 93.1527 122.948 93.0755 123.094 92.9351C123.24 92.7947 123.325 92.6025 123.33 92.4V90.62C123.33 90.5166 123.371 90.4174 123.444 90.3442C123.517 90.2711 123.617 90.23 123.72 90.23C123.824 90.2324 123.922 90.274 123.997 90.3463C124.071 90.4187 124.115 90.5165 124.12 90.62V92.4C124.116 92.6071 124.071 92.8113 123.988 93.0009C123.905 93.1906 123.785 93.3619 123.635 93.5051C123.486 93.6482 123.309 93.7603 123.116 93.835C122.923 93.9096 122.717 93.9453 122.51 93.94Z" fill="#263238"/>
<path d="M125.6 92.09V89.14C125.615 89.0435 125.664 88.9556 125.739 88.8922C125.813 88.8287 125.907 88.7939 126.005 88.7939C126.103 88.7939 126.197 88.8287 126.271 88.8922C126.346 88.9556 126.395 89.0435 126.41 89.14V90.54C126.703 90.3341 127.052 90.2256 127.41 90.23C127.879 90.2644 128.317 90.4748 128.636 90.8189C128.956 91.163 129.134 91.6153 129.134 92.085C129.134 92.5547 128.956 93.007 128.636 93.3511C128.317 93.6952 127.879 93.9056 127.41 93.94C127.052 93.9357 126.704 93.8242 126.41 93.62C126.394 93.7109 126.345 93.793 126.274 93.8516C126.202 93.9102 126.112 93.9415 126.02 93.94C125.968 93.94 125.916 93.9297 125.867 93.9096C125.818 93.8895 125.774 93.86 125.737 93.8229C125.7 93.7857 125.671 93.7416 125.651 93.6931C125.63 93.6446 125.62 93.5925 125.62 93.54L125.6 92.09ZM126.41 92.09C126.409 92.3666 126.517 92.6325 126.71 92.83C126.799 92.9261 126.908 93.0024 127.028 93.0541C127.149 93.1058 127.279 93.1316 127.41 93.13C127.67 93.1237 127.918 93.016 128.1 92.83C128.294 92.6325 128.401 92.3666 128.4 92.09C128.405 91.951 128.381 91.8125 128.329 91.6834C128.278 91.5542 128.2 91.4373 128.1 91.34C127.918 91.154 127.67 91.0464 127.41 91.04C127.279 91.0384 127.149 91.0643 127.028 91.116C126.908 91.1676 126.799 91.2439 126.71 91.34C126.611 91.4373 126.533 91.5542 126.481 91.6834C126.429 91.8125 126.405 91.951 126.41 92.09Z" fill="#263238"/>
<path d="M129.78 94.85C129.78 94.7971 129.791 94.7447 129.812 94.696C129.832 94.6473 129.863 94.6034 129.901 94.5669C129.94 94.5304 129.985 94.5021 130.035 94.4837C130.084 94.4654 130.137 94.4573 130.19 94.46V90.63C130.189 90.5771 130.198 90.5245 130.218 90.4753C130.237 90.4262 130.267 90.3815 130.304 90.3441C130.342 90.3067 130.386 90.2773 130.435 90.2576C130.485 90.238 130.537 90.2286 130.59 90.23C130.643 90.2286 130.696 90.238 130.745 90.2576C130.794 90.2773 130.839 90.3067 130.876 90.3441C130.913 90.3815 130.943 90.4262 130.962 90.4753C130.982 90.5245 130.991 90.5771 130.99 90.63V94.46C130.99 94.6722 130.906 94.8757 130.756 95.0257C130.606 95.1757 130.402 95.26 130.19 95.26C130.135 95.2629 130.081 95.2542 130.03 95.2347C129.979 95.2151 129.932 95.185 129.894 95.1463C129.855 95.1077 129.825 95.0613 129.805 95.0102C129.786 94.9592 129.777 94.9046 129.78 94.85ZM130.2 89.3V89.15C130.215 89.0535 130.264 88.9656 130.339 88.9022C130.413 88.8387 130.507 88.8038 130.605 88.8038C130.703 88.8038 130.797 88.8387 130.871 88.9022C130.946 88.9656 130.995 89.0535 131.01 89.15V89.3C131.019 89.3585 131.016 89.4183 131 89.4753C130.984 89.5324 130.955 89.5852 130.917 89.6302C130.878 89.6753 130.83 89.7114 130.777 89.7362C130.723 89.761 130.664 89.7738 130.605 89.7738C130.546 89.7738 130.487 89.761 130.434 89.7362C130.38 89.7114 130.332 89.6753 130.293 89.6302C130.255 89.5852 130.227 89.5324 130.211 89.4753C130.194 89.4183 130.191 89.3585 130.2 89.3Z" fill="#263238"/>
<path d="M132.1 92.08C132.097 91.5937 132.287 91.1262 132.628 90.7795C132.969 90.4328 133.434 90.2353 133.92 90.23C134.154 90.2287 134.386 90.2734 134.602 90.3617C134.818 90.4499 135.015 90.5799 135.182 90.7443C135.348 90.9086 135.48 91.1041 135.571 91.3196C135.661 91.535 135.709 91.7663 135.71 92C135.71 92 135.71 92.05 135.71 92.06C135.695 92.1502 135.647 92.2313 135.574 92.287C135.502 92.3427 135.411 92.3688 135.32 92.36H133C133.036 92.5435 133.123 92.7133 133.25 92.85C133.444 93.0426 133.698 93.1627 133.97 93.19C134.241 93.2119 134.511 93.1452 134.74 93C134.818 92.9331 134.917 92.8964 135.02 92.8964C135.123 92.8964 135.222 92.9331 135.3 93C135.364 93.0637 135.399 93.15 135.399 93.24C135.399 93.33 135.364 93.4163 135.3 93.48C134.938 93.8115 134.461 93.9875 133.97 93.97C133.722 93.9741 133.475 93.9279 133.245 93.8342C133.015 93.7404 132.806 93.601 132.631 93.4244C132.457 93.2478 132.319 93.0376 132.228 92.8066C132.137 92.5755 132.093 92.3284 132.1 92.08ZM132.91 91.72H135C134.914 91.4951 134.764 91.3004 134.569 91.16C134.373 91.0196 134.141 90.9396 133.9 90.93C133.669 90.9272 133.444 91.0043 133.264 91.1483C133.084 91.2923 132.959 91.4943 132.91 91.72Z" fill="#263238"/>
<path d="M136.63 92.09C136.635 91.5931 136.837 91.1186 137.191 90.77C137.545 90.4215 138.023 90.2273 138.52 90.23C138.946 90.2343 139.359 90.3744 139.7 90.63C139.78 90.6949 139.833 90.7875 139.848 90.8894C139.862 90.9913 139.838 91.095 139.78 91.18C139.75 91.2217 139.711 91.2569 139.667 91.2835C139.622 91.3102 139.573 91.3277 139.522 91.3352C139.471 91.3426 139.419 91.3398 139.368 91.3269C139.318 91.314 139.271 91.2913 139.23 91.26C139.025 91.1069 138.776 91.0228 138.52 91.02C138.372 91.0056 138.222 91.0224 138.08 91.0694C137.938 91.1163 137.808 91.1924 137.698 91.2927C137.587 91.393 137.499 91.5153 137.438 91.6518C137.378 91.7882 137.347 91.9358 137.347 92.085C137.347 92.2342 137.378 92.3818 137.438 92.5183C137.499 92.6547 137.587 92.777 137.698 92.8773C137.808 92.9776 137.938 93.0537 138.08 93.1006C138.222 93.1476 138.372 93.1644 138.52 93.15C138.775 93.1487 139.023 93.0684 139.23 92.92C139.271 92.8888 139.318 92.866 139.368 92.8531C139.419 92.8402 139.471 92.8374 139.522 92.8448C139.573 92.8523 139.622 92.8698 139.667 92.8965C139.711 92.9231 139.75 92.9583 139.78 93C139.838 93.085 139.862 93.1887 139.848 93.2906C139.833 93.3925 139.78 93.4851 139.7 93.55C139.358 93.802 138.945 93.9386 138.52 93.94C138.025 93.9427 137.549 93.7499 137.195 93.4035C136.841 93.0571 136.638 92.5851 136.63 92.09Z" fill="#263238"/>
<path d="M142.81 90.63C142.81 90.7387 142.767 90.843 142.69 90.9199C142.613 90.9968 142.509 91.04 142.4 91.04H142.21V93.12C142.319 93.12 142.423 93.1632 142.5 93.2401C142.577 93.317 142.62 93.4213 142.62 93.53C142.62 93.6387 142.577 93.743 142.5 93.8199C142.423 93.8968 142.319 93.94 142.21 93.94C141.993 93.94 141.784 93.8536 141.63 93.6998C141.476 93.5461 141.39 93.3375 141.39 93.12V91H141.17C141.061 91 140.957 90.9568 140.88 90.8799C140.803 90.803 140.76 90.6987 140.76 90.59C140.76 90.5366 140.771 90.4838 140.791 90.4346C140.812 90.3854 140.842 90.3409 140.881 90.3036C140.919 90.2663 140.964 90.237 141.014 90.2175C141.064 90.198 141.117 90.1887 141.17 90.19H141.39V89.15C141.39 89.0413 141.433 88.937 141.51 88.8601C141.587 88.7832 141.691 88.74 141.8 88.74C141.909 88.74 142.013 88.7832 142.09 88.8601C142.167 88.937 142.21 89.0413 142.21 89.15V90.23H142.4C142.453 90.2287 142.506 90.238 142.556 90.2575C142.606 90.277 142.651 90.3063 142.689 90.3436C142.728 90.3808 142.758 90.4254 142.779 90.4746C142.799 90.5238 142.81 90.5766 142.81 90.63Z" fill="#263238"/>
<path d="M144.62 89.93C144.731 89.928 144.84 89.9592 144.934 90.0195C145.027 90.0798 145.101 90.1665 145.144 90.2687C145.188 90.3708 145.201 90.4837 145.18 90.593C145.16 90.7023 145.107 90.803 145.03 90.8823C144.952 90.9616 144.852 91.016 144.743 91.0384C144.634 91.0608 144.521 91.0503 144.418 91.0083C144.315 90.9662 144.227 90.8944 144.165 90.8021C144.103 90.7098 144.07 90.6012 144.07 90.49C144.07 90.3432 144.128 90.2023 144.231 90.0975C144.333 89.9928 144.473 89.9326 144.62 89.93ZM144.62 92.93C144.731 92.928 144.84 92.9592 144.934 93.0195C145.027 93.0798 145.101 93.1665 145.144 93.2687C145.188 93.3708 145.201 93.4837 145.18 93.593C145.16 93.7023 145.107 93.803 145.03 93.8823C144.952 93.9616 144.852 94.016 144.743 94.0384C144.634 94.0608 144.521 94.0503 144.418 94.0083C144.315 93.9662 144.227 93.8944 144.165 93.8021C144.103 93.7098 144.07 93.6012 144.07 93.49C144.065 93.414 144.075 93.3377 144.1 93.2657C144.125 93.1938 144.164 93.1277 144.216 93.0715C144.267 93.0154 144.33 92.9703 144.399 92.9391C144.469 92.9079 144.544 92.8912 144.62 92.89V92.93Z" fill="#263238"/>
<path d="M136.55 74.47C174.55 73.85 216.81 73.86 254.84 74.47C216.84 75.07 174.57 75.09 136.55 74.47Z" fill="#DBDBDB"/>
<path d="M152 91.94C194.21 91.32 241.13 91.34 283.37 91.94C241.12 92.54 194.22 92.56 152 91.94Z" fill="#DBDBDB"/>
<path d="M382.93 246.81H379.68V245.88H382V243.56H382.93V246.81Z" fill="#DBDBDB"/>
<path d="M374.16 246.81H368.64V245.88H374.16V246.81ZM363.16 246.81H357.6V245.88H363.12L363.16 246.81ZM352.16 246.81H346.65V245.88H352.16V246.81ZM341.16 246.81H335.64V245.88H341.16V246.81ZM330.16 246.81H324.64V245.88H330L330.16 246.81ZM319.16 246.81H313.65V245.88H319L319.16 246.81ZM308.16 246.81H302.64V245.88H308.16V246.81ZM297.16 246.81H291.64V245.88H297.16V246.81ZM286.16 246.81H280.65V245.88H286.16V246.81ZM275.16 246.81H269.64V245.88H275.16V246.81ZM264.16 246.81H258.64V245.88H264.16V246.81ZM253.16 246.81H247.65V245.88H253.16V246.81ZM242.16 246.81H236.2V245.88H241.72L242.16 246.81ZM231.16 246.81H225.64V245.88H231.16V246.81ZM220.16 246.81H214.64V245.88H220.16V246.81ZM209.16 246.81H203.64V245.88H209.16V246.81ZM198.16 246.81H192.64V245.88H198.16V246.81ZM187.16 246.81H181V245.88H186.52L187.16 246.81ZM176.16 246.81H170V245.88H175.52L176.16 246.81ZM165.16 246.81H159.64V245.88H165.16V246.81ZM154.16 246.81H148.64V245.88H154.16V246.81ZM143.16 246.81H137.64V245.88H143.16V246.81ZM132.16 246.81H126.64V245.88H132.16V246.81Z" fill="#DBDBDB"/>
<path d="M120.32 246.81H117.06V243.56H117.99V245.88H120.32V246.81Z" fill="#DBDBDB"/>
<path d="M118 237.92H117.07V232.28H118V237.92ZM118 226.64H117.07V221H118V226.64ZM118 215.37H117.07V209.73H118V215.37ZM118 204.1H117.07V198.46H118V204.1ZM118 192.82H117.07V187.18H118V192.82ZM118 181.55H117.07V175.91H118V181.55ZM118 170.27H117.07V164.64H118V170.27ZM118 159H117.07V153.36H118V159ZM118 147.73H117.07V142.09H118V147.73ZM118 136.45H117.07V130.81H118V136.45ZM118 125.18H117.07V119.54H118V125.18Z" fill="#DBDBDB"/>
<path d="M117.99 113.9H117.06V110.65H120.32V111.58H117.99V113.9Z" fill="#DBDBDB"/>
<path d="M374.16 111.58H368.64V110.65H374.16V111.58ZM363.16 111.58H357.6V110.65H363.12L363.16 111.58ZM352.16 111.58H346.65V110.65H352.16V111.58ZM341.16 111.58H335.64V110.65H341.16V111.58ZM330.16 111.58H324.64V110.65H330L330.16 111.58ZM319.16 111.58H313.65V110.65H319L319.16 111.58ZM308.16 111.58H302.64V110.65H308.16V111.58ZM297.16 111.58H291.64V110.65H297.16V111.58ZM286.16 111.58H280.65V110.65H286.16V111.58ZM275.16 111.58H269.64V110.65H275.16V111.58ZM264.16 111.58H258.64V110.65H264.16V111.58ZM253.16 111.58H247.65V110.65H253.16V111.58ZM242.16 111.58H236.2V110.65H241.72L242.16 111.58ZM231.16 111.58H225.64V110.65H231.16V111.58ZM220.16 111.58H214.65V110.65H220.16V111.58ZM209.16 111.58H203.64V110.65H209.16V111.58ZM198.16 111.58H192.64V110.65H198.16V111.58ZM187.16 111.58H181V110.65H186.52L187.16 111.58ZM176.16 111.58H170V110.65H175.52L176.16 111.58ZM165.16 111.58H159.64V110.65H165.16V111.58ZM154.16 111.58H148.64V110.65H154.16V111.58ZM143.16 111.58H137.64V110.65H143.16V111.58ZM132.16 111.58H126.64V110.65H132.16V111.58Z" fill="#DBDBDB"/>
<path d="M382.93 113.9H382V111.58H379.68V110.65H382.93V113.9Z" fill="#DBDBDB"/>
<path d="M382.93 237.92H382V232.28H382.93V237.92ZM382.93 226.64H382V221H382.93V226.64ZM382.93 215.37H382V209.73H382.93V215.37ZM382.93 204.1H382V198.46H382.93V204.1ZM382.93 192.82H382V187.18H382.93V192.82ZM382.93 181.55H382V175.91H382.93V181.55ZM382.93 170.27H382V164.64H382.93V170.27ZM382.93 159H382V153.36H382.93V159ZM382.93 147.73H382V142.09H382.93V147.73ZM382.93 136.45H382V130.81H382.93V136.45ZM382.93 125.18H382V119.54H382.93V125.18Z" fill="#DBDBDB"/>
<path d="M252.15 162.57H247.84V194.89H252.15V162.57Z" fill="#DBDBDB"/>
<path d="M266.15 180.88V176.57H233.83V180.88H266.15Z" fill="#DBDBDB"/>
<path d="M162.46 254.6H117.53V269.91H162.46V254.6Z" fill="#244282"/>
<path d="M124.68 263.31C124.712 263.27 124.752 263.236 124.797 263.212C124.842 263.187 124.891 263.171 124.943 263.166C124.994 263.16 125.045 263.165 125.095 263.179C125.144 263.194 125.19 263.218 125.23 263.25C125.629 263.591 126.127 263.794 126.65 263.83C126.981 263.832 127.305 263.735 127.58 263.55C127.672 263.494 127.749 263.416 127.805 263.324C127.861 263.232 127.893 263.128 127.9 263.02C127.9 262.935 127.876 262.852 127.83 262.78C127.772 262.687 127.694 262.608 127.6 262.55C127.289 262.378 126.951 262.263 126.6 262.21C126.255 262.156 125.918 262.055 125.6 261.91C125.321 261.789 125.082 261.591 124.91 261.34C124.798 261.156 124.74 260.945 124.74 260.73C124.746 260.515 124.802 260.304 124.905 260.114C125.007 259.925 125.153 259.763 125.33 259.64C125.71 259.381 126.16 259.245 126.62 259.25C127.206 259.284 127.769 259.489 128.24 259.84C128.321 259.898 128.378 259.985 128.398 260.084C128.419 260.182 128.401 260.284 128.35 260.37C128.323 260.412 128.287 260.449 128.246 260.477C128.204 260.506 128.157 260.526 128.108 260.536C128.059 260.546 128.008 260.546 127.958 260.537C127.909 260.527 127.862 260.508 127.82 260.48C127.477 260.204 127.059 260.037 126.62 260C126.323 259.997 126.032 260.088 125.79 260.26C125.709 260.31 125.641 260.379 125.592 260.461C125.544 260.542 125.515 260.635 125.51 260.73C125.489 260.795 125.489 260.865 125.51 260.93C125.56 261.011 125.629 261.08 125.71 261.13C125.996 261.296 126.312 261.405 126.64 261.45C126.985 261.515 127.321 261.623 127.64 261.77C127.94 261.899 128.197 262.11 128.38 262.38C128.498 262.573 128.56 262.794 128.56 263.02C128.552 263.249 128.489 263.472 128.378 263.672C128.267 263.872 128.11 264.042 127.92 264.17C127.52 264.452 127.04 264.599 126.55 264.59C125.851 264.554 125.181 264.295 124.64 263.85C124.578 263.771 124.547 263.672 124.555 263.572C124.562 263.472 124.607 263.379 124.68 263.31Z" fill="white"/>
<path d="M129.47 262.74C129.466 262.499 129.51 262.259 129.599 262.035C129.688 261.811 129.82 261.606 129.988 261.434C130.157 261.261 130.357 261.123 130.579 261.028C130.801 260.933 131.039 260.883 131.28 260.88C131.746 260.875 132.196 261.053 132.531 261.377C132.866 261.701 133.06 262.144 133.07 262.61V262.71C133.053 262.799 133.004 262.879 132.932 262.934C132.86 262.99 132.771 263.017 132.68 263.01H130.31C130.349 263.195 130.439 263.364 130.57 263.5C130.758 263.693 131.011 263.811 131.28 263.83C131.55 263.863 131.823 263.799 132.05 263.65C132.128 263.583 132.227 263.546 132.33 263.546C132.433 263.546 132.532 263.583 132.61 263.65C132.674 263.715 132.71 263.803 132.71 263.895C132.71 263.987 132.674 264.075 132.61 264.14C132.247 264.47 131.77 264.645 131.28 264.63C131.037 264.626 130.797 264.574 130.574 264.477C130.35 264.379 130.149 264.239 129.981 264.063C129.812 263.887 129.68 263.68 129.593 263.453C129.505 263.225 129.464 262.983 129.47 262.74ZM130.28 262.38H132.38C132.298 262.153 132.149 261.956 131.952 261.815C131.756 261.674 131.522 261.596 131.28 261.59C131.048 261.585 130.821 261.661 130.638 261.805C130.456 261.949 130.329 262.153 130.28 262.38Z" fill="white"/>
<path d="M137.36 262.43V264.2C137.361 264.252 137.352 264.304 137.333 264.352C137.314 264.401 137.286 264.445 137.25 264.482C137.213 264.52 137.17 264.549 137.122 264.569C137.074 264.59 137.022 264.6 136.97 264.6C136.866 264.597 136.767 264.554 136.694 264.479C136.621 264.405 136.58 264.304 136.58 264.2V262.43C136.579 262.329 136.558 262.23 136.518 262.138C136.478 262.045 136.42 261.962 136.347 261.892C136.274 261.822 136.189 261.767 136.095 261.731C136.001 261.695 135.901 261.677 135.8 261.68C135.702 261.68 135.605 261.699 135.515 261.737C135.424 261.775 135.342 261.83 135.273 261.9C135.204 261.97 135.15 262.053 135.114 262.144C135.077 262.235 135.059 262.332 135.06 262.43V264.2C135.065 264.226 135.065 264.254 135.06 264.28C135.038 264.37 134.987 264.45 134.915 264.508C134.842 264.566 134.753 264.598 134.66 264.6C134.608 264.6 134.557 264.59 134.509 264.569C134.461 264.549 134.417 264.52 134.381 264.482C134.344 264.445 134.316 264.401 134.297 264.352C134.278 264.304 134.269 264.252 134.27 264.2V261.28C134.269 261.228 134.278 261.176 134.297 261.128C134.316 261.079 134.344 261.035 134.381 260.998C134.417 260.96 134.461 260.931 134.509 260.911C134.557 260.89 134.608 260.88 134.66 260.88C134.737 260.88 134.813 260.901 134.878 260.942C134.944 260.982 134.996 261.041 135.03 261.11C135.263 260.961 135.534 260.881 135.81 260.88C136.22 260.883 136.613 261.047 136.903 261.337C137.193 261.627 137.358 262.02 137.36 262.43Z" fill="white"/>
<path d="M142 264.2C142.011 264.306 141.979 264.412 141.911 264.495C141.844 264.577 141.746 264.629 141.64 264.64C141.534 264.651 141.428 264.619 141.345 264.551C141.263 264.484 141.211 264.386 141.2 264.28C140.959 264.431 140.687 264.523 140.404 264.551C140.122 264.579 139.837 264.541 139.571 264.44C139.306 264.339 139.067 264.178 138.874 263.97C138.681 263.762 138.539 263.511 138.459 263.239C138.379 262.967 138.363 262.679 138.413 262.4C138.462 262.12 138.575 261.856 138.744 261.627C138.913 261.399 139.132 261.213 139.384 261.083C139.637 260.953 139.916 260.884 140.2 260.88C140.557 260.881 140.905 260.989 141.2 261.19V259.8C141.191 259.741 141.194 259.682 141.21 259.625C141.227 259.568 141.255 259.515 141.293 259.47C141.332 259.425 141.38 259.389 141.433 259.364C141.487 259.339 141.546 259.326 141.605 259.326C141.664 259.326 141.723 259.339 141.777 259.364C141.83 259.389 141.878 259.425 141.917 259.47C141.955 259.515 141.983 259.568 142 259.625C142.016 259.682 142.019 259.741 142.01 259.8V262.74L142 264.2ZM140.19 261.69C140.059 261.693 139.929 261.722 139.809 261.775C139.689 261.829 139.581 261.905 139.49 262C139.296 262.201 139.188 262.47 139.19 262.75C139.191 263.023 139.299 263.285 139.49 263.48C139.581 263.575 139.689 263.651 139.809 263.705C139.929 263.758 140.059 263.787 140.19 263.79C140.322 263.791 140.453 263.764 140.573 263.71C140.694 263.657 140.802 263.578 140.89 263.48C140.987 263.385 141.063 263.271 141.115 263.146C141.167 263.02 141.192 262.886 141.19 262.75C141.195 262.611 141.171 262.472 141.119 262.343C141.067 262.214 140.989 262.097 140.89 262C140.807 261.907 140.705 261.831 140.592 261.778C140.478 261.724 140.355 261.695 140.23 261.69H140.19Z" fill="white"/>
<path d="M154.85 261.72H158.15L156.5 263.16L154.85 261.72Z" fill="white"/>
<path opacity="0.1" d="M150.68 255.62C151.16 260.154 151.16 264.726 150.68 269.26C150.2 264.726 150.2 260.154 150.68 255.62Z" fill="black"/>
<path d="M182.05 263.35H178.79L178.13 265.1C178.074 265.239 177.977 265.359 177.852 265.443C177.728 265.527 177.58 265.571 177.43 265.57C177.344 265.586 177.256 265.586 177.17 265.57C177.075 265.534 176.989 265.479 176.915 265.409C176.842 265.338 176.783 265.255 176.742 265.162C176.701 265.069 176.679 264.969 176.677 264.867C176.675 264.765 176.693 264.665 176.73 264.57L179.73 256.66C179.788 256.52 179.886 256.4 180.013 256.316C180.14 256.232 180.288 256.189 180.44 256.19C180.592 256.187 180.741 256.231 180.868 256.314C180.995 256.398 181.093 256.519 181.15 256.66L184.15 264.57C184.189 264.664 184.208 264.766 184.206 264.867C184.205 264.969 184.183 265.07 184.142 265.163C184.101 265.257 184.042 265.341 183.967 265.411C183.893 265.48 183.806 265.535 183.71 265.57C183.624 265.587 183.536 265.587 183.45 265.57C183.302 265.572 183.157 265.528 183.035 265.444C182.913 265.36 182.82 265.24 182.77 265.1L182.05 263.35ZM181.5 261.88L180.41 259L179.32 261.89L181.5 261.88Z" fill="#C7C7C7"/>
<path d="M184.73 266.89H176.07V268.33H184.73V266.89Z" fill="#C7C7C7"/>
<path d="M195.9 268.25C195.104 268.25 194.341 267.934 193.779 267.371C193.216 266.809 192.9 266.046 192.9 265.25V258.64C192.938 258.07 193.191 257.537 193.608 257.147C194.025 256.757 194.574 256.54 195.145 256.54C195.716 256.54 196.265 256.757 196.682 257.147C197.099 257.537 197.352 258.07 197.39 258.64V264.83C197.36 265.182 197.2 265.51 196.939 265.749C196.679 265.989 196.339 266.121 195.985 266.121C195.632 266.121 195.291 265.989 195.031 265.749C194.771 265.51 194.61 265.182 194.58 264.83V259.68H195.51V264.83C195.51 264.955 195.56 265.074 195.648 265.162C195.736 265.25 195.855 265.3 195.98 265.3C196.106 265.3 196.226 265.251 196.316 265.163C196.406 265.075 196.458 264.956 196.46 264.83V258.64C196.431 258.311 196.28 258.005 196.037 257.782C195.794 257.559 195.475 257.435 195.145 257.435C194.815 257.435 194.497 257.559 194.253 257.782C194.01 258.005 193.859 258.311 193.83 258.64V265.25C193.83 265.799 194.048 266.326 194.436 266.714C194.825 267.102 195.351 267.32 195.9 267.32C196.449 267.32 196.976 267.102 197.364 266.714C197.752 266.326 197.97 265.799 197.97 265.25V259.67H198.9V265.25C198.9 266.046 198.584 266.809 198.021 267.371C197.459 267.934 196.696 268.25 195.9 268.25Z" fill="#C7C7C7"/>
<path d="M211.47 265.49H210C209.548 265.525 209.093 265.467 208.664 265.318C208.236 265.169 207.843 264.933 207.51 264.625C207.177 264.317 206.911 263.944 206.729 263.528C206.547 263.112 206.454 262.664 206.454 262.21C206.454 261.756 206.547 261.308 206.729 260.892C206.911 260.476 207.177 260.103 207.51 259.795C207.843 259.487 208.236 259.251 208.664 259.102C209.093 258.953 209.548 258.895 210 258.93H211.43V260.33H210C209.741 260.311 209.481 260.346 209.236 260.432C208.991 260.518 208.766 260.654 208.576 260.831C208.385 261.008 208.234 261.222 208.13 261.46C208.026 261.698 207.973 261.955 207.973 262.215C207.973 262.475 208.026 262.732 208.13 262.97C208.234 263.208 208.385 263.422 208.576 263.599C208.766 263.776 208.991 263.912 209.236 263.998C209.481 264.084 209.741 264.119 210 264.1H211.43L211.47 265.49Z" fill="#C7C7C7"/>
<path d="M215.71 265.49H214.28V264.1H215.71C215.969 264.119 216.229 264.084 216.474 263.998C216.719 263.912 216.944 263.776 217.134 263.599C217.325 263.422 217.476 263.208 217.58 262.97C217.684 262.732 217.737 262.475 217.737 262.215C217.737 261.955 217.684 261.698 217.58 261.46C217.476 261.222 217.325 261.008 217.134 260.831C216.944 260.654 216.719 260.518 216.474 260.432C216.229 260.346 215.969 260.311 215.71 260.33H214.28V258.93H215.71C216.162 258.895 216.617 258.953 217.046 259.102C217.474 259.251 217.867 259.487 218.2 259.795C218.533 260.103 218.799 260.476 218.981 260.892C219.163 261.308 219.256 261.756 219.256 262.21C219.256 262.664 219.163 263.112 218.981 263.528C218.799 263.944 218.533 264.317 218.2 264.625C217.867 264.933 217.474 265.169 217.046 265.318C216.617 265.467 216.162 265.525 215.71 265.49Z" fill="#C7C7C7"/>
<path d="M215.13 261.52H210.62V262.92H215.13V261.52Z" fill="#C7C7C7"/>
<path d="M231.21 267.7C230.145 267.702 229.104 267.388 228.217 266.797C227.331 266.207 226.64 265.367 226.232 264.383C225.823 263.4 225.716 262.317 225.923 261.273C226.13 260.228 226.643 259.269 227.396 258.516C228.149 257.763 229.108 257.25 230.153 257.043C231.197 256.836 232.28 256.943 233.264 257.351C234.247 257.76 235.087 258.451 235.678 259.337C236.268 260.224 236.582 261.265 236.58 262.33C236.577 263.753 236.011 265.118 235.004 266.124C233.998 267.131 232.633 267.697 231.21 267.7ZM231.21 257.88C230.33 257.878 229.468 258.137 228.735 258.625C228.002 259.113 227.43 259.807 227.092 260.62C226.753 261.433 226.664 262.328 226.834 263.192C227.005 264.056 227.428 264.85 228.05 265.473C228.672 266.096 229.465 266.521 230.328 266.694C231.192 266.866 232.087 266.779 232.901 266.442C233.714 266.106 234.41 265.535 234.899 264.803C235.389 264.071 235.65 263.211 235.65 262.33C235.65 261.151 235.183 260.021 234.35 259.187C233.518 258.353 232.389 257.883 231.21 257.88Z" fill="#C7C7C7"/>
<path d="M228.95 262.22C229.37 262.22 229.71 261.88 229.71 261.46C229.71 261.04 229.37 260.7 228.95 260.7C228.53 260.7 228.19 261.04 228.19 261.46C228.19 261.88 228.53 262.22 228.95 262.22Z" fill="#C7C7C7"/>
<path d="M233.46 262.22C233.88 262.22 234.22 261.88 234.22 261.46C234.22 261.04 233.88 260.7 233.46 260.7C233.04 260.7 232.7 261.04 232.7 261.46C232.7 261.88 233.04 262.22 233.46 262.22Z" fill="#C7C7C7"/>
<path d="M229.06 263.39H233.36C233.121 263.737 232.799 264.019 232.424 264.211C232.048 264.403 231.631 264.499 231.21 264.49C230.785 264.523 230.359 264.437 229.98 264.243C229.6 264.049 229.282 263.754 229.06 263.39Z" fill="#C7C7C7"/>
<path d="M252.58 265.76H243.83L248.2 258.45L252.58 265.76ZM245.47 264.83H250.94L248.2 260.26L245.47 264.83Z" fill="#C7C7C7"/>
<path d="M267.59 257.91H258.77V266.73H267.59V257.91Z" fill="#C7C7C7"/>
<path d="M266.79 265.3H261.57L264.18 262.49L266.79 265.3Z" fill="white"/>
<path d="M263.79 265.3H259.58L261.68 263.03L263.79 265.3Z" fill="white"/>
<path d="M282.15 259.68H275.09V266.74H282.15V259.68Z" fill="#C7C7C7"/>
<path d="M280.7 260.35H279.77V258.8C279.743 258.512 279.61 258.245 279.396 258.05C279.183 257.855 278.904 257.748 278.615 257.748C278.326 257.748 278.047 257.855 277.834 258.05C277.62 258.245 277.487 258.512 277.46 258.8V260.35H276.53V258.8C276.567 258.272 276.802 257.778 277.189 257.416C277.576 257.055 278.086 256.854 278.615 256.854C279.144 256.854 279.654 257.055 280.041 257.416C280.428 257.778 280.663 258.272 280.7 258.8V260.35Z" fill="#C7C7C7"/>
<path d="M286.49 263.77C286.492 264.502 286.277 265.219 285.871 265.828C285.466 266.438 284.889 266.914 284.213 267.195C283.537 267.477 282.793 267.552 282.074 267.41C281.356 267.268 280.696 266.917 280.177 266.4C279.659 265.883 279.305 265.224 279.162 264.506C279.018 263.788 279.091 263.043 279.371 262.366C279.651 261.69 280.125 261.111 280.733 260.704C281.342 260.297 282.058 260.08 282.79 260.08C283.77 260.08 284.709 260.468 285.403 261.16C286.096 261.852 286.487 262.79 286.49 263.77Z" fill="white"/>
<path d="M282.79 267.93C281.967 267.93 281.163 267.686 280.479 267.229C279.795 266.772 279.262 266.122 278.947 265.362C278.632 264.602 278.55 263.765 278.71 262.958C278.871 262.151 279.267 261.41 279.849 260.828C280.43 260.247 281.172 259.85 281.979 259.69C282.786 259.529 283.622 259.612 284.382 259.927C285.142 260.242 285.792 260.775 286.249 261.459C286.706 262.143 286.95 262.947 286.95 263.77C286.95 264.316 286.843 264.857 286.633 265.362C286.424 265.867 286.118 266.325 285.732 266.712C285.345 267.098 284.887 267.404 284.382 267.613C283.877 267.822 283.336 267.93 282.79 267.93ZM282.79 260.54C282.151 260.54 281.527 260.729 280.996 261.084C280.464 261.439 280.05 261.944 279.806 262.534C279.562 263.124 279.498 263.774 279.622 264.4C279.747 265.027 280.054 265.602 280.506 266.054C280.958 266.506 281.533 266.813 282.16 266.938C282.787 267.063 283.436 266.999 284.026 266.754C284.616 266.51 285.121 266.096 285.476 265.564C285.831 265.033 286.02 264.409 286.02 263.77C286.02 263.346 285.937 262.926 285.774 262.534C285.612 262.142 285.374 261.786 285.074 261.486C284.774 261.186 284.418 260.948 284.026 260.786C283.634 260.624 283.214 260.54 282.79 260.54Z" fill="#C7C7C7"/>
<path d="M283.7 265.34L282.33 263.97V261.8H283.26V263.58L284.36 264.69L283.7 265.34Z" fill="#C7C7C7"/>
<path d="M368.87 259C368.87 259.15 368.826 259.297 368.742 259.422C368.659 259.547 368.54 259.645 368.401 259.702C368.262 259.76 368.109 259.775 367.962 259.745C367.814 259.716 367.679 259.644 367.573 259.537C367.466 259.431 367.394 259.296 367.365 259.148C367.335 259.001 367.35 258.848 367.408 258.709C367.465 258.57 367.563 258.452 367.688 258.368C367.813 258.285 367.96 258.24 368.11 258.24C368.312 258.24 368.505 258.32 368.648 258.463C368.79 258.605 368.87 258.798 368.87 259Z" fill="#C7C7C7"/>
<path d="M368.87 262.33C368.87 262.48 368.826 262.627 368.742 262.752C368.659 262.877 368.54 262.975 368.401 263.032C368.262 263.09 368.109 263.105 367.962 263.075C367.814 263.046 367.679 262.974 367.573 262.867C367.466 262.761 367.394 262.626 367.365 262.478C367.335 262.331 367.35 262.178 367.408 262.039C367.465 261.9 367.563 261.782 367.688 261.698C367.813 261.615 367.96 261.57 368.11 261.57C368.312 261.57 368.505 261.65 368.648 261.793C368.79 261.935 368.87 262.128 368.87 262.33Z" fill="#C7C7C7"/>
<path d="M368.87 265.62C368.872 265.771 368.829 265.919 368.747 266.045C368.665 266.171 368.547 266.27 368.408 266.329C368.269 266.388 368.116 266.405 367.968 266.377C367.82 266.348 367.684 266.277 367.576 266.171C367.469 266.065 367.396 265.93 367.365 265.782C367.335 265.634 367.35 265.481 367.407 265.342C367.464 265.202 367.562 265.083 367.687 264.999C367.812 264.915 367.959 264.87 368.11 264.87C368.31 264.87 368.502 264.949 368.644 265.089C368.786 265.229 368.867 265.42 368.87 265.62Z" fill="#C7C7C7"/>
<path d="M381.84 260.12H376.33V266.38H381.84V260.12Z" fill="#C7C7C7"/>
<path d="M382.46 258.91H375.71V259.68H382.46V258.91Z" fill="#C7C7C7"/>
<path d="M381.44 258.12H376.74V258.9H381.44V258.12Z" fill="#C7C7C7"/>
<path d="M155.38 403.26L90.71 455.41H94.35L169.04 403.26H155.38Z" fill="#C7C7C7"/>
<path d="M161.45 403.26L129.5 455.41H133.14L172.31 403.26H161.45Z" fill="#C7C7C7"/>
<path d="M177.12 403.26L209.07 455.41H205.43L166.26 403.26H177.12Z" fill="#C7C7C7"/>
<path d="M182.7 403.26L247.37 455.41H243.72L169.04 403.26H182.7Z" fill="#C7C7C7"/>
<path d="M290.63 384.13V368.88L201.83 365.24L154.92 240H47.4399L85.4699 384.13L176.32 409.64H182.02L290.63 384.13Z" fill="#455A64"/>
<path d="M47.4399 240H59.7399L99.3599 371.38L179.74 394.15L290.63 368.88V384.13L182.02 409.64H176.32L85.4699 384.13L47.4399 240Z" fill="#37474F"/>
<path d="M355.94 454.88C353.08 454.95 278.76 431.98 276.48 429.31C276.24 429.02 277.4 418.01 279.32 409.31C279.4 408.89 252.92 374.19 252.92 374.19L300.8 355.57L323.71 403L329.71 415.34C329.71 415.34 354.5 440.26 356.71 443.45C358.92 446.64 358.81 454.82 355.94 454.88Z" fill="#EBEBEB"/>
<path d="M358 455.3C355 455.38 277.43 431.7 275 428.92C274.09 427.92 275.48 423.08 279.25 409.28L330.11 415.4C330.11 415.4 356.36 440.05 358.66 443.4C360.96 446.75 361 455.22 358 455.3Z" fill="#244282"/>
<path d="M357.87 451.86C344.96 447.57 292.49 431.49 279.41 428.23C279.3 428.23 279.28 428.23 279.41 428.31C292.11 432.84 344.71 448.5 357.83 452.07C358.08 452.15 358.14 452 357.87 451.86Z" fill="#263238"/>
<path d="M354.59 439.06C353.155 438.585 351.637 438.411 350.132 438.548C348.626 438.686 347.165 439.133 345.84 439.86C343.459 441.166 341.67 443.335 340.84 445.92C340.84 446 340.96 446.04 341 445.97C342.227 443.529 344.214 441.552 346.661 440.337C349.108 439.122 351.883 438.733 354.57 439.23C354.588 439.226 354.605 439.217 354.618 439.203C354.631 439.189 354.639 439.171 354.642 439.152C354.644 439.133 354.64 439.114 354.631 439.098C354.621 439.081 354.607 439.068 354.59 439.06Z" fill="#263238"/>
<path d="M335.43 420.53C330.25 418.87 323.65 418.87 319.12 422.14C318.94 422.26 319.12 422.51 319.31 422.48C324.583 421.485 329.946 421.056 335.31 421.2C335.399 421.216 335.49 421.196 335.564 421.144C335.638 421.093 335.689 421.014 335.705 420.925C335.721 420.836 335.701 420.745 335.649 420.671C335.598 420.596 335.519 420.546 335.43 420.53Z" fill="#263238"/>
<path d="M339 423.33C333.82 421.67 327.22 421.66 322.69 424.93C322.51 425.06 322.69 425.31 322.88 425.27C328.152 424.274 333.517 423.848 338.88 424C338.969 424.016 339.06 423.996 339.134 423.944C339.209 423.893 339.259 423.814 339.275 423.725C339.291 423.636 339.271 423.545 339.219 423.471C339.168 423.396 339.089 423.346 339 423.33Z" fill="#263238"/>
<path d="M342.51 426.12C337.33 424.46 330.73 424.45 326.2 427.72C326.02 427.85 326.2 428.1 326.39 428.07C331.663 427.075 337.026 426.646 342.39 426.79C342.479 426.806 342.57 426.786 342.644 426.734C342.719 426.683 342.769 426.604 342.785 426.515C342.801 426.426 342.781 426.335 342.729 426.261C342.678 426.186 342.599 426.136 342.51 426.12Z" fill="#263238"/>
<path d="M346.05 428.91C340.87 427.25 334.28 427.25 329.74 430.52C329.57 430.64 329.74 430.89 329.93 430.86C335.202 429.865 340.566 429.436 345.93 429.58C346.019 429.596 346.11 429.576 346.184 429.524C346.258 429.473 346.309 429.394 346.325 429.305C346.341 429.216 346.321 429.125 346.269 429.051C346.218 428.976 346.139 428.926 346.05 428.91Z" fill="#263238"/>
<path d="M345.3 408.36C343.3 405.36 339.36 406.49 337.04 408.27C333.122 411.386 330.091 415.475 328.25 420.13C328.24 420.151 328.235 420.174 328.236 420.197C328.238 420.22 328.244 420.242 328.256 420.262C328.268 420.282 328.285 420.299 328.305 420.31C328.324 420.322 328.347 420.329 328.37 420.33C328.37 420.74 328.71 421.19 329.17 421.04C333.66 419.61 338.64 418.63 342.55 415.86C344.84 414.25 347.16 411.19 345.3 408.36ZM335.54 417.48C333.35 418.23 331.13 418.88 328.97 419.72C330.616 417.358 332.382 415.082 334.26 412.9C335.191 411.855 336.194 410.876 337.26 409.97C338.92 408.59 345.35 405.8 344.14 411.63C343.44 414.84 338.15 416.57 335.54 417.48Z" fill="#263238"/>
<path d="M314.73 418.12C319.05 420.2 324.12 420.33 328.73 421C329.21 421.07 329.48 420.57 329.41 420.17C329.431 420.164 329.45 420.153 329.466 420.139C329.483 420.124 329.495 420.106 329.503 420.085C329.51 420.065 329.513 420.043 329.511 420.021C329.509 419.999 329.502 419.978 329.49 419.96C326.908 415.666 323.237 412.13 318.85 409.71C316.27 408.35 312.17 407.9 310.73 411.17C309.41 414.27 312.21 416.9 314.73 418.12ZM312.49 414.19C310.33 408.65 317.14 410.34 319 411.42C320.194 412.14 321.337 412.942 322.42 413.82C324.633 415.659 326.749 417.612 328.76 419.67C326.49 419.2 324.2 418.93 321.92 418.54C319.19 418.08 313.68 417.25 312.49 414.19Z" fill="#263238"/>
<path d="M326.13 405.21L273.35 413C273.35 413 244.55 360.7 232.92 347.69C232.265 346.943 231.553 346.247 230.79 345.61C229.586 345.071 228.296 344.749 226.98 344.66C211.37 342.77 158.85 347.87 122.55 345.53L139.55 322.87L147.06 312.87C187.95 308.21 238.13 291.49 260.78 302.87C285.25 315.1 326.13 405.21 326.13 405.21Z" fill="#263238"/>
<path d="M319.51 396.25C310.51 397.4 313.1 396.95 304.14 398.2C299.76 398.81 277.72 401.84 273.72 403.09C273.702 403.096 273.687 403.108 273.676 403.123C273.665 403.138 273.659 403.156 273.659 403.175C273.659 403.194 273.665 403.212 273.676 403.227C273.687 403.242 273.702 403.254 273.72 403.26C277.9 403.26 299.88 399.8 304.25 399.1C313.18 397.69 310.6 398 319.52 396.5C319.539 396.505 319.56 396.505 319.579 396.5C319.599 396.496 319.617 396.487 319.633 396.474C319.648 396.461 319.661 396.445 319.669 396.427C319.677 396.408 319.681 396.388 319.68 396.368C319.679 396.348 319.674 396.329 319.664 396.311C319.654 396.293 319.641 396.278 319.624 396.267C319.608 396.255 319.589 396.248 319.569 396.245C319.549 396.242 319.529 396.244 319.51 396.25Z" fill="#37474F"/>
<path d="M273.62 402.35C267.62 392.35 240.45 343.07 235.04 341.13C230.11 339.36 131.54 341.41 130.04 341.42C129.93 341.42 129.93 341.59 130.04 341.59C141.71 341.44 231.81 341.12 234.38 342.13C239.73 344.25 272.25 401.43 273.05 402.62C273.29 402.94 273.83 402.69 273.62 402.35Z" fill="#37474F"/>
<path d="M94.91 324.88C94.91 324.88 91.8 354.61 106.91 369.39C124.96 387.09 244.08 382.62 262.54 376.65C281 370.68 281.54 340.9 261.39 333.99C242.2 327.43 157.08 323.65 155.07 322.85C153.06 322.05 147.15 312.63 147.15 312.63L94.91 324.88Z" fill="#263238"/>
<path d="M120.12 324.05C120.12 323.9 119.88 323.95 119.88 324.05C119.873 327.924 118.499 331.671 116 334.63C113.17 337.9 109 339.73 105.22 341.63C104.86 341.81 105.14 342.38 105.51 342.27C107.83 341.551 110.066 340.586 112.18 339.39C114.112 338.353 115.813 336.935 117.18 335.22C118.418 333.664 119.319 331.867 119.825 329.944C120.331 328.021 120.432 326.014 120.12 324.05Z" fill="#37474F"/>
<path d="M154.23 321C153.38 319.92 152.46 318.9 151.58 317.85C149.51 315.38 147.42 312.85 145.24 310.5C145.03 310.28 144.63 310.6 144.82 310.84C146.28 312.76 147.82 314.62 149.37 316.49C150.15 317.49 150.94 318.41 151.73 319.36C152.554 320.218 153.291 321.156 153.93 322.16C154.5 323.22 153.75 324.16 152.65 324.25C151.668 324.266 150.718 323.909 149.99 323.25C148.343 321.787 146.837 320.173 145.49 318.43C144.61 317.43 143.74 316.43 142.85 315.49C141.96 314.55 140.9 313.49 139.95 312.44C139.89 312.38 139.77 312.44 139.83 312.54C140.65 313.67 141.41 314.85 142.24 315.99C143.07 317.13 143.9 318.24 144.75 319.35C145.6 320.46 146.39 321.43 147.25 322.44C147.966 323.331 148.824 324.098 149.79 324.71C151.37 325.64 154.11 325.84 154.95 323.8C155.087 323.311 155.093 322.795 154.967 322.303C154.84 321.811 154.586 321.362 154.23 321Z" fill="#37474F"/>
<path d="M260 376.76C253.64 376.88 247.29 377.25 240.94 377.39C234.59 377.53 228.32 377.56 222.02 377.5C209.353 377.38 196.687 376.887 184.02 376.02C171.25 375.14 157.48 373.87 144.79 372.11C138.72 371.27 132.57 370.57 126.57 369.28C121.178 368.253 116.192 365.706 112.2 361.94C103.99 353.94 100.79 342.25 99.4799 331.06C99.3099 329.56 99.1599 328.06 99.0399 326.55C99.0399 326.45 98.8799 326.45 98.8799 326.55C99.6299 338.03 101.41 349.99 108.63 359.22C111.676 363.247 115.734 366.397 120.39 368.35C126.07 370.63 132.39 371.16 138.39 371.97C151.12 373.7 165 375 177.76 376C190.52 377 203.57 377.62 216.49 377.81C229.41 378 242.35 377.81 255.26 377.18C256.84 377.11 258.41 377.01 259.98 376.88C260.07 376.9 260.07 376.76 260 376.76Z" fill="#37474F"/>
<path d="M277 349C275.788 344.021 272.751 339.678 268.49 336.83C263.91 333.7 258.44 332.28 253.02 331.49C246.9 330.6 240.69 330.15 234.53 329.55C221.863 328.323 209.197 327.19 196.53 326.15C183.87 325.15 156.62 322.99 155.08 322.93C154.95 322.93 154.92 323.15 155.08 323.17C167.29 324.52 178.41 325.69 190.65 326.8C202.89 327.91 215.24 329.09 227.53 330.3C233.657 330.913 239.78 331.53 245.9 332.15C251.57 332.74 257.41 333.32 262.73 335.51C267.29 337.39 271.4 340.41 273.73 344.85C275.89 349.235 276.52 354.216 275.52 359C274.681 363.464 272.638 367.614 269.61 371C266.713 374.328 262.844 376.665 258.55 377.68C257.43 377.92 256.08 378.1 255.05 378.3C254.97 378.3 254.89 378.48 254.97 378.49C264.12 378.72 272.58 372.04 275.88 363.68C277.75 359.017 278.141 353.892 277 349Z" fill="#37474F"/>
<path d="M135.73 257.91C158.38 266.1 180.9 267.29 187.32 265.76C195.44 263.83 223.61 235.76 224.87 234.18C227.96 230.31 202.58 209.29 199.11 213.28C193.81 219.36 176.55 241.14 174.11 241.63C171.67 242.12 156.56 243.63 135.11 244.75C120.22 245.51 121.68 252.82 135.73 257.91Z" fill="#F7A9A0"/>
<path d="M219.17 239.65C222.57 238.15 237.53 229.9 241.17 226.65C244.81 223.4 254.66 213.38 252.47 210.33C250.28 207.28 247.17 209.99 247.17 209.99C247.17 209.99 250.65 205.09 248.17 202.23C245.69 199.37 240.99 203.74 240.99 203.74C240.99 203.74 244.19 198.44 241.52 195.74C238.85 193.04 234.84 198.25 234.84 198.25C234.84 198.25 238 193.55 234.84 192.25C231.07 190.71 226.23 200.03 221.93 203.25C220.93 203.99 201.08 216.84 201.08 216.84L219.17 239.65Z" fill="#F7A9A0"/>
<path d="M235.2 197.86C231.62 204.71 228.87 207.09 222.3 210.86C222.17 210.94 222.25 211.14 222.39 211.08C229.17 207.92 233.05 205.44 235.54 197.97C235.67 197.65 235.37 197.54 235.2 197.86Z" fill="#263238"/>
<path d="M241.27 203.22C236.93 210.01 233.97 212.61 227.38 217.12C227.28 217.18 227.38 217.35 227.48 217.29C234.32 213.41 238.14 210.84 241.58 203.49C241.74 203.16 241.47 202.91 241.27 203.22Z" fill="#263238"/>
<path d="M246.84 210.24C242.16 216.51 239.04 219.51 232.08 223.06C232.053 223.08 232.033 223.108 232.023 223.14C232.014 223.173 232.016 223.207 232.029 223.238C232.041 223.269 232.064 223.295 232.093 223.312C232.123 223.329 232.157 223.335 232.19 223.33C239.65 220.39 243.57 216.68 247.02 210.4C247.25 210 247.13 209.85 246.84 210.24Z" fill="#263238"/>
<path d="M265.09 242.49H215.41V178.71H252.3L265.1 190.87L265.09 242.49Z" fill="white"/>
<path d="M265.09 242.49C264.95 242.49 215.4 242.64 215.26 242.63C215.12 242.62 215.26 178.77 215.19 178.71V178.48H215.41C215.53 178.53 252.35 178.48 252.41 178.59C252.47 178.7 265.2 190.76 265.23 190.8C265.26 190.84 265.04 242.44 265.08 242.49H265.09ZM265.09 242.49C265.09 242.49 264.91 190.49 265 190.97L252.18 178.84C252.83 178.92 215.26 178.92 215.41 178.93L215.64 178.71L215.55 242.49C214.65 242.16 265.29 242.57 265.09 242.49Z" fill="#263238"/>
<path d="M252.3 178.71L265.1 190.87H252.3V178.71Z" fill="#EBEBEB"/>
<path d="M220.23 191.07H247.86V189.43H220.23V191.07Z" fill="#EBEBEB"/>
<path d="M220.23 195.2H247.86V193.56H220.23V195.2Z" fill="#EBEBEB"/>
<path d="M220.23 199.34H247.86V197.7H220.23V199.34Z" fill="#EBEBEB"/>
<path d="M220.23 203.48H260.71V201.84H220.23V203.48Z" fill="#EBEBEB"/>
<path d="M220.23 207.6H260.71V205.96H220.23V207.6Z" fill="#EBEBEB"/>
<path d="M220.23 211.74H260.71V210.1H220.23V211.74Z" fill="#EBEBEB"/>
<path d="M220.23 215.87H260.71V214.23H220.23V215.87Z" fill="#EBEBEB"/>
<path d="M220.23 220.01H260.71V218.37H220.23V220.01Z" fill="#EBEBEB"/>
<path d="M220.24 224.15H260.72V222.51H220.24V224.15Z" fill="#EBEBEB"/>
<path d="M220.24 228.27H260.72V226.63H220.24V228.27Z" fill="#EBEBEB"/>
<path d="M220.23 232.41H260.71V230.77H220.23V232.41Z" fill="#EBEBEB"/>
<path d="M220.23 236.54H260.71V234.9H220.23V236.54Z" fill="#EBEBEB"/>
<path d="M268.09 240.37L218.4 240.36L218.41 176.58H255.3L268.1 188.74L268.09 240.37Z" fill="white"/>
<path d="M268.09 240.37L218.26 240.51C218.18 240.51 218.26 176.64 218.19 176.58V176.36H218.41C218.53 176.36 255.35 176.36 255.41 176.46C255.47 176.56 268.19 188.63 268.23 188.68C268.27 188.73 268.04 240.31 268.08 240.37H268.09ZM268.09 240.37C268.09 240.37 267.91 188.37 267.99 188.84L255.18 176.71C255.83 176.8 218.26 176.79 218.41 176.8L218.63 176.58L218.55 240.36C217.65 240.03 268.29 240.45 268.09 240.36V240.37Z" fill="#263238"/>
<path d="M255.3 176.58L268.1 188.74H255.3V176.58Z" fill="#EBEBEB"/>
<path d="M223.23 188.95H250.86V187.31H223.23V188.95Z" fill="#EBEBEB"/>
<path d="M223.23 193.07H250.86V191.43H223.23V193.07Z" fill="#EBEBEB"/>
<path d="M223.24 197.21H250.87V195.57H223.24V197.21Z" fill="#EBEBEB"/>
<path d="M223.24 201.34H263.72V199.7H223.24V201.34Z" fill="#EBEBEB"/>
<path d="M223.24 205.48H263.72V203.84H223.24V205.48Z" fill="#EBEBEB"/>
<path d="M223.24 209.62H263.72V207.98H223.24V209.62Z" fill="#EBEBEB"/>
<path d="M223.24 213.74H263.72V212.1H223.24V213.74Z" fill="#EBEBEB"/>
<path d="M223.23 217.88H263.71V216.24H223.23V217.88Z" fill="#EBEBEB"/>
<path d="M223.23 222.01H263.71V220.37H223.23V222.01Z" fill="#EBEBEB"/>
<path d="M223.23 226.15H263.71V224.51H223.23V226.15Z" fill="#EBEBEB"/>
<path d="M223.23 230.29H263.71V228.65H223.23V230.29Z" fill="#EBEBEB"/>
<path d="M223.23 234.41H263.71V232.77H223.23V234.41Z" fill="#EBEBEB"/>
<path d="M228 186.88C227.263 186.88 226.556 186.587 226.034 186.066C225.513 185.544 225.22 184.837 225.22 184.1V176C225.22 175.554 225.397 175.127 225.712 174.812C226.027 174.497 226.454 174.32 226.9 174.32C227.346 174.32 227.773 174.497 228.088 174.812C228.403 175.127 228.58 175.554 228.58 176V182.73H227.67V176C227.67 175.796 227.589 175.6 227.444 175.456C227.3 175.311 227.104 175.23 226.9 175.23C226.696 175.23 226.5 175.311 226.355 175.456C226.211 175.6 226.13 175.796 226.13 176V184.08C226.111 184.336 226.145 184.594 226.231 184.836C226.316 185.079 226.45 185.301 226.625 185.49C226.8 185.678 227.012 185.828 227.248 185.931C227.484 186.034 227.738 186.087 227.995 186.087C228.252 186.087 228.506 186.034 228.742 185.931C228.978 185.828 229.19 185.678 229.365 185.49C229.54 185.301 229.674 185.079 229.759 184.836C229.844 184.594 229.879 184.336 229.86 184.08V175.45C229.86 174.691 229.559 173.964 229.022 173.428C228.486 172.891 227.758 172.59 227 172.59C226.241 172.59 225.514 172.891 224.978 173.428C224.441 173.964 224.14 174.691 224.14 175.45V176.56H223.22V175.45C223.22 174.45 223.617 173.491 224.324 172.784C225.031 172.077 225.99 171.68 226.99 171.68C227.99 171.68 228.949 172.077 229.656 172.784C230.363 173.491 230.76 174.45 230.76 175.45V184.08C230.763 184.817 230.474 185.524 229.957 186.049C229.44 186.573 228.736 186.872 228 186.88Z" fill="#263238"/>
<path d="M196.16 216.66C196.16 216.66 201.64 208.66 204.83 205.71C208.02 202.76 224 196 225.6 199.38C227.73 203.72 219.29 209.38 214.79 211.66C214.79 211.66 219.71 221.66 214.54 227.09C209.37 232.52 196.16 216.66 196.16 216.66Z" fill="#F7A9A0"/>
<path d="M225.79 200.77C224.88 206.12 218.79 208.69 214.58 211.2C214.515 211.233 214.46 211.282 214.418 211.342C214.377 211.402 214.351 211.471 214.343 211.543C214.336 211.616 214.346 211.689 214.373 211.756C214.4 211.824 214.444 211.884 214.5 211.93C216.28 216.27 217.5 222.93 214.84 227.08C214.77 227.2 214.93 227.33 215.02 227.22C218.51 223.14 217.82 216.51 215.56 211.88C219.91 209.38 225.9 206.54 225.85 200.77H225.79Z" fill="#263238"/>
<path d="M193.71 216.73L218.19 247.47C218.19 247.47 193.74 267.47 185.51 268.87C177.28 270.27 148.76 264.25 133.81 259.23C118.86 254.21 120.41 244.23 132.4 243.48C144.39 242.73 173.7 240.53 174.67 239.97C175.64 239.41 193.71 216.73 193.71 216.73Z" fill="#244282"/>
<path d="M203.13 240.51C200.41 237.08 197.73 233.61 194.88 230.28C193.27 228.38 191.67 226.47 190.03 224.59C189.97 224.52 189.84 224.59 189.9 224.69C192.48 228.25 195.09 231.82 197.84 235.26C200.59 238.7 203.28 242.13 206.06 245.51C207.64 247.44 209.27 249.31 210.97 251.14C210.97 251.14 211.07 251.14 211.04 251.14C208.57 247.44 205.86 244 203.13 240.51Z" fill="#263238"/>
<path opacity="0.1" d="M163 266.64C153.137 264.761 143.396 262.29 133.83 259.24C119 254.24 120.43 244.24 132.42 243.48L135.42 243.29L163 266.64Z" fill="black"/>
<path d="M91.48 330C91.67 330.19 163.48 314.46 164.15 313.63C165.08 312.45 152.25 258.45 138.71 242.33C135.32 238.33 124.54 238.58 119.71 242.65C95.8 262.84 90.8 329.33 91.48 330Z" fill="#244282"/>
<path d="M114.13 246.54C99.81 257.54 62.07 302.1 69.96 312.66C77.85 323.22 131.96 319.66 147.7 315.17C152.39 313.81 140.35 283.95 135.34 282.47C131.17 281.24 107.76 287.6 107.34 286.24C106.86 284.71 112.04 274.83 120.41 256.79C130.05 236 120.46 241.68 114.13 246.54Z" fill="#F7A9A0"/>
<path d="M157.35 279C167.79 279.27 170.42 280.94 179.35 276.49C185.21 273.57 189.59 276.06 185.61 281.58C179.1 290.58 165.56 293.09 160.61 292.58L157.35 279Z" fill="#F7A9A0"/>
<path d="M128.63 284.33C128.63 284.33 141.15 279.86 152.29 279.05C160 278.48 176.91 279.13 190.06 298.05C193.17 302.55 194.43 311.17 186.67 305.67C181.15 301.76 178.84 297.67 175.22 295.94C175.22 295.94 175.51 307.09 170.88 310.04C166.832 312.613 162.608 314.899 158.24 316.88C157.697 316.158 157.199 315.403 156.75 314.62C156.75 314.62 152.16 316.97 144.6 314.97L128.63 284.33Z" fill="#F7A9A0"/>
<path d="M159.74 279.68C162.98 282.12 169.74 287.39 173.8 293.68C178.29 300.61 185.07 315.18 179.92 318.44C176.14 320.83 173.06 315.5 173.06 315.5C173.06 315.5 174.59 322.11 170.71 323.5C167.17 324.78 165.03 320.5 165.03 320.5C165.03 320.5 165.27 324.68 161.62 325.26C157.23 325.96 157.45 317.11 152.39 313.98C151.25 313.27 159.74 279.68 159.74 279.68Z" fill="#F7A9A0"/>
<path d="M165.68 297.16C168.35 299.95 172.79 307.84 173.14 315.31C173.14 315.48 173.03 315.57 172.99 315.42C171.277 309.07 168.799 302.952 165.61 297.2C165.61 297.2 165.65 297.13 165.68 297.16Z" fill="#263238"/>
<path d="M158.81 301.9C160.87 304.54 165.08 312.9 165.18 320.46C165.18 320.63 165.05 320.72 165.01 320.56C163.63 314.133 161.527 307.883 158.74 301.93C158.74 301.93 158.78 301.86 158.81 301.9Z" fill="#263238"/>
<path d="M175.23 295.91C178.39 297.44 180.29 299.43 182.77 301.84C183.984 303.048 185.263 304.19 186.6 305.26C187.84 306.26 189.65 307.65 191.28 306.74C191.676 306.442 191.984 306.041 192.171 305.582C192.358 305.122 192.416 304.62 192.34 304.13C192.16 302.715 191.755 301.337 191.14 300.05C191.14 300 191.2 299.95 191.23 300C191.831 301.183 192.313 302.422 192.67 303.7C192.893 304.576 192.847 305.5 192.54 306.35C191.75 308.1 189.54 307.98 188.1 307.22C187.24 306.737 186.433 306.168 185.69 305.52C184.96 304.93 184.26 304.3 183.58 303.65C182.17 302.32 180.85 300.91 179.46 299.57C178.105 298.292 176.668 297.103 175.16 296.01C175.16 296.01 175.17 295.88 175.23 295.91Z" fill="#263238"/>
<path d="M180.26 308.76C178.837 304.4 177.13 300.137 175.15 296C175.15 295.94 175.15 295.89 175.23 295.94C177.42 298.83 180.5 306.04 181.12 308.29C181.74 310.54 182.41 313.34 182.03 315.64C181.45 319.11 179.03 319.39 178.16 319.42C177.118 319.422 176.105 319.07 175.29 318.42C174.335 317.587 173.562 316.566 173.02 315.42C173.02 315.42 173.02 315.32 173.1 315.42C174.1 316.99 175.86 318.67 177.78 318.73C178.204 318.76 178.629 318.705 179.031 318.568C179.433 318.43 179.803 318.213 180.12 317.93C180.766 317.175 181.121 316.214 181.12 315.22C181.206 313.033 180.915 310.848 180.26 308.76Z" fill="#263238"/>
<path d="M128.63 282.83L139.5 320.64C139.5 320.64 71.8899 324.5 68.1399 312.22C64.3899 299.94 97.0599 259.72 110.61 248.67C126.31 235.87 127.15 241.25 122.04 254.05C116.69 267.46 107.47 286.6 107.47 286.6L128.63 282.83Z" fill="#244282"/>
<path d="M86.1099 292.66C92.8206 289.47 99.9746 287.313 107.33 286.26C109.4 285.93 111.49 285.71 113.58 285.47C113.593 285.47 113.606 285.475 113.615 285.485C113.625 285.494 113.63 285.507 113.63 285.52C113.63 285.533 113.625 285.546 113.615 285.555C113.606 285.565 113.593 285.57 113.58 285.57C109.916 286.124 106.286 286.888 102.71 287.86C99.1499 288.787 95.6099 289.787 92.0899 290.86C90.0899 291.46 88.0899 292.15 86.1499 292.86C86.0699 292.83 85.9999 292.7 86.1099 292.66Z" fill="#263238"/>
<path d="M128.47 282.7C128.13 282.7 109.33 285.7 108.7 285.84C108.82 285.58 113.59 276.63 114.3 275.32L114.5 274.93C114.93 274.36 115.36 273.8 115.76 273.22L117.31 270.97C116.76 271.69 116.21 272.41 115.67 273.14C115.42 273.48 115.17 273.82 114.94 274.14C115.41 273.21 115.88 272.27 116.34 271.34C117.08 269.84 117.77 268.34 118.46 266.81C118.46 266.76 118.41 266.73 118.38 266.81C116.98 269.42 115.5 271.98 114.08 274.59C112.66 277.2 107.32 286.76 107.35 286.76C107.38 286.76 128.13 283.08 128.54 282.98C128.577 282.971 128.609 282.947 128.629 282.914C128.648 282.881 128.654 282.842 128.645 282.805C128.636 282.768 128.612 282.736 128.579 282.716C128.546 282.697 128.507 282.691 128.47 282.7Z" fill="#263238"/>
<path d="M125.89 305.77C124.71 301.55 123.55 297.32 122.21 293.15C121.45 290.78 120.69 288.4 119.91 286.04C119.91 285.95 119.72 285.99 119.74 286.04C120.74 290.32 121.8 294.61 123.02 298.84C124.24 303.07 125.42 307.27 126.68 311.47C127.407 313.85 128.2 316.21 129.06 318.55C129.06 318.55 129.16 318.55 129.15 318.55C128.27 314.25 127.09 310 125.89 305.77Z" fill="#263238"/>
<path d="M140.25 321.33C139.77 320.14 139.25 318.45 138.68 317.33C138.54 317.02 138.32 317.04 138.42 317.33C138.75 318.39 138.98 319.56 139.31 320.65C138.36 320.65 137.42 320.65 136.47 320.73L133.19 320.87C131.05 320.95 128.91 321.01 126.77 321.05C122.43 321.137 118.097 321.137 113.77 321.05C105.078 320.889 96.3992 320.278 87.77 319.22C85.35 318.91 82.94 318.55 80.55 318.12C78.1927 317.735 75.8564 317.231 73.55 316.61C73.49 316.61 73.46 316.69 73.55 316.72C75.5006 317.479 77.5064 318.087 79.55 318.54C81.71 319.013 83.88 319.417 86.06 319.75C90.4 320.42 94.78 320.85 99.16 321.17C107.84 321.8 116.56 322.05 125.27 321.96C127.71 321.96 130.15 321.88 132.58 321.79C133.81 321.79 135.05 321.71 136.28 321.64C137.51 321.57 140.33 321.53 140.25 321.33Z" fill="#263238"/>
<path d="M231.44 326.31H144.93V329.8H231.44V326.31Z" fill="#455A64"/>
<path d="M192.8 326.31H144.93V329.8H192.8V326.31Z" fill="#A6A6A6"/>
<path d="M191.35 329.79H267.17L277.88 278.3H202.06L191.35 329.79Z" fill="#A6A6A6"/>
<path d="M194.79 329.79H270.61L281.32 278.3H205.5L194.79 329.79Z" fill="#C7C7C7"/>
<path d="M233 305.2C232.915 305.838 232.969 306.488 233.158 307.103C233.347 307.719 233.668 308.286 234.097 308.766C234.527 309.245 235.055 309.627 235.646 309.883C236.237 310.139 236.876 310.264 237.52 310.25C238.903 310.22 240.229 309.693 241.255 308.766C242.281 307.838 242.94 306.573 243.11 305.2C243.195 304.561 243.141 303.912 242.952 303.296C242.763 302.68 242.442 302.112 242.013 301.631C241.584 301.151 241.055 300.769 240.465 300.511C239.874 300.254 239.234 300.127 238.59 300.14C237.205 300.169 235.877 300.696 234.85 301.626C233.823 302.556 233.166 303.825 233 305.2Z" fill="#EBEBEB"/>
<path d="M133.64 258C133.64 258 119.42 247.24 111.26 248.56L105.09 255.62C105.09 255.62 102.91 256.62 102.02 255.3C99.8199 251.94 98.3699 243.3 105.1 236.77C111.26 230.77 122.47 229.77 132.1 231C141.35 232.22 149.86 237.17 147.85 243.35C145.84 249.53 133.64 258 133.64 258Z" fill="#244282"/>
<path opacity="0.1" d="M134.19 255.16C134.19 255.16 143.52 246.53 144.02 242.05C144.52 237.57 135.31 234.53 129.49 233.62C120.49 232.2 114.63 233.51 110.35 238.77C106.07 244.03 134.19 255.16 134.19 255.16Z" fill="black"/>
<path d="M134.86 252.91C131.66 253.68 123.79 248.96 120.19 244.39C119.95 244.07 119.87 240.39 119.55 235.82C119.35 233.07 119.07 230.02 118.55 227.26L136.6 228.56C136.192 232.184 136.229 235.845 136.71 239.46C136.779 239.842 136.883 240.217 137.02 240.58C137.02 240.58 137.02 240.69 137.07 240.76C137.84 242.86 139.87 251.71 134.86 252.91Z" fill="#F7A9A0"/>
<path d="M137.07 240.58C137.07 240.58 137.07 240.68 137.13 240.76C136.551 240.938 135.959 241.072 135.36 241.16C125.46 242.58 121.03 230.97 119.91 227.35L136.66 228.56C136.251 232.187 136.282 235.85 136.75 239.47C136.828 239.848 136.935 240.219 137.07 240.58Z" fill="#263238"/>
<path d="M111 209.94C111 216.46 119.47 232.71 124.89 235.24C132.75 238.91 142.98 236.34 145.43 227.5C147.8 218.93 136.43 197.95 130.61 195.92C122.08 192.93 111 200.31 111 209.94Z" fill="#F7A9A0"/>
<path d="M127.81 214.91C128.213 214.547 128.597 214.163 128.96 213.76C129.44 213.413 129.791 212.918 129.96 212.35C129.972 212.164 129.923 211.979 129.82 211.824C129.717 211.668 129.566 211.551 129.39 211.49C129.023 211.419 128.643 211.449 128.291 211.575C127.939 211.702 127.628 211.921 127.39 212.21C126.82 212.73 126.464 213.442 126.39 214.21C126.396 214.372 126.446 214.53 126.534 214.666C126.622 214.802 126.746 214.911 126.891 214.983C127.037 215.055 127.199 215.086 127.361 215.073C127.522 215.06 127.678 215.004 127.81 214.91Z" fill="#263238"/>
<path d="M139.09 209.61C138.563 209.747 138.029 209.854 137.49 209.93C136.938 210.115 136.341 210.115 135.79 209.93C135.628 209.837 135.502 209.694 135.429 209.523C135.357 209.351 135.343 209.16 135.39 208.98C135.536 208.639 135.771 208.343 136.07 208.123C136.368 207.904 136.721 207.768 137.09 207.73C137.827 207.527 138.614 207.613 139.29 207.97C139.441 208.059 139.564 208.19 139.642 208.347C139.72 208.505 139.75 208.681 139.729 208.856C139.707 209.03 139.636 209.194 139.522 209.328C139.409 209.462 139.258 209.56 139.09 209.61Z" fill="#263238"/>
<path d="M134.38 223.57C134.875 223.872 135.427 224.07 136.001 224.151C136.576 224.231 137.161 224.194 137.72 224.04C138.208 223.903 138.675 223.701 139.11 223.44C139.195 223.398 139.275 223.348 139.35 223.29L139.58 223.13C139.634 223.092 139.673 223.036 139.692 222.973C139.71 222.909 139.706 222.841 139.68 222.78L139.61 222.67L139.56 222.58C139.17 221.71 138.46 220.45 138.46 220.45C138.85 220.45 140.79 220.4 140.55 219.97C138.59 216.157 136.244 212.555 133.55 209.22C133.47 209.11 133.29 209.22 133.36 209.35C135.15 212.88 137.54 216.07 139.36 219.59C138.681 219.6 138.008 219.708 137.36 219.91C137.25 220 138.77 222.32 138.92 222.72C138.918 222.737 138.918 222.753 138.92 222.77C138.251 223.176 137.507 223.445 136.732 223.56C135.958 223.675 135.168 223.634 134.41 223.44C134.32 223.39 134.27 223.51 134.38 223.57Z" fill="#263238"/>
<path d="M138.39 223.25C138.216 224.087 137.83 224.865 137.27 225.51C136.946 225.848 136.528 226.082 136.07 226.18C135.07 226.37 134.66 225.57 134.49 224.79C134.404 224.376 134.364 223.953 134.37 223.53C135.706 223.868 137.114 223.77 138.39 223.25Z" fill="#263238"/>
<path d="M137.27 225.51C136.946 225.848 136.528 226.082 136.07 226.18C135.07 226.37 134.66 225.57 134.49 224.79C134.967 224.58 135.5 224.538 136.005 224.668C136.509 224.799 136.955 225.095 137.27 225.51Z" fill="#FF9ABB"/>
<path d="M131.64 216.41C131.64 216.41 131.57 216.5 131.64 216.54C132.17 217.65 132.64 219 131.74 219.82C131.74 219.82 131.74 219.9 131.74 219.88C132.9 219.16 132.32 217.37 131.64 216.41Z" fill="#263238"/>
<path d="M130.12 215.68C128.26 216.34 129.72 220.02 131.44 219.41C133.16 218.8 131.68 215.13 130.12 215.68Z" fill="#263238"/>
<path d="M138.09 213.33C138.09 213.33 138.2 213.33 138.22 213.4C138.62 214.56 139.28 215.81 140.47 215.79C140.47 215.79 140.52 215.85 140.47 215.86C139.15 216.17 138.29 214.5 138.09 213.33Z" fill="#263238"/>
<path d="M138.65 211.75C140.43 210.89 142 214.52 140.35 215.31C138.7 216.1 137.15 212.46 138.65 211.75Z" fill="#263238"/>
<path d="M136.52 201.38C135.24 200.19 133.85 199.04 132.83 199.14C131.81 199.24 132.63 202.19 130.68 203.22C128.05 204.62 124.96 202.15 121.24 204.03C116.64 206.36 115.77 210.9 119.08 218.7C122.08 225.7 118.49 228.33 118.49 228.33C118.49 228.33 108.36 214.43 110.4 207.47C112.44 200.51 121.31 193.9 130.07 195.76C133.27 196.44 136.52 201.38 136.52 201.38Z" fill="#263238"/>
<path d="M119 222.84C119 222.84 113.31 218.58 111.25 220.79C109.19 223 114.76 230.06 118.07 230.18C118.493 230.225 118.92 230.185 119.326 230.061C119.733 229.937 120.11 229.731 120.435 229.458C120.76 229.184 121.027 228.847 121.218 228.468C121.41 228.088 121.523 227.674 121.55 227.25L119 222.84Z" fill="#F7A9A0"/>
<path d="M112.93 222.78V222.86C115.27 223.01 116.99 224.57 118.41 226.31C118.222 226.141 118 226.015 117.758 225.941C117.517 225.867 117.262 225.847 117.012 225.881C116.761 225.915 116.521 226.003 116.309 226.14C116.096 226.276 115.916 226.457 115.78 226.67C115.78 226.73 115.78 226.8 115.88 226.76C116.207 226.528 116.599 226.404 117 226.404C117.401 226.404 117.792 226.528 118.12 226.76C118.671 227.142 119.177 227.585 119.63 228.08C119.79 228.23 120.09 228.02 119.95 227.83C119.11 225.12 115.84 222.11 112.93 222.78Z" fill="#263238"/>
<path d="M125 195.66C122.433 195.471 119.852 195.66 117.34 196.22C114.54 196.9 106.34 200.74 105.01 203.22C103.68 205.7 106.1 213.79 106.49 214.97C106.88 216.15 110.05 222.97 113.23 223.68C116.41 224.39 112.13 212.42 114.64 206.95C117.15 201.48 125 195.66 125 195.66Z" fill="#244282"/>
<path opacity="0.1" d="M125 195.66C125 195.66 117.15 201.46 114.64 206.93C112.13 212.4 116.41 224.38 113.23 223.66C111.83 223.33 110.86 222.43 109.7 220.75C108.91 217.07 108.27 211.14 109.7 206.3C111.09 201.77 115.09 198.23 119.87 195.77C121.574 195.594 123.29 195.557 125 195.66Z" fill="black"/>
<path d="M116.56 230.45C115.56 227.2 115.56 217.45 117.12 211.34C118.68 205.23 127.53 198.57 128.95 198.13C132.4 197.04 133.75 198.37 134.17 197.87C134.59 197.37 129.76 194.81 128.59 194.6C126.863 194.419 125.118 194.624 123.48 195.2C122.03 195.79 113.32 200.13 111.48 205.2C109.64 210.27 109.1 222.88 111.01 225.33C111.46 225.91 112.51 226.01 113.15 226.84C113.99 227.94 114.79 229.27 115.49 229.99C116.19 230.71 116.65 230.74 116.56 230.45Z" fill="#244282"/>
<path d="M117.07 208.86C116.117 208.675 115.181 208.414 114.27 208.08C113.345 207.756 112.462 207.323 111.64 206.79C111.58 206.79 111.51 206.79 111.56 206.88C112.323 207.545 113.187 208.085 114.12 208.48C115.057 208.848 116.053 209.042 117.06 209.05C117.08 209.045 117.098 209.033 117.112 209.016C117.125 209 117.133 208.98 117.134 208.959C117.135 208.938 117.13 208.917 117.118 208.899C117.106 208.881 117.09 208.868 117.07 208.86Z" fill="#263238"/>
<path d="M115.33 227.3C115.139 227.116 114.939 226.943 114.73 226.78C114.513 226.576 114.315 226.351 114.14 226.11C113.878 225.608 113.563 225.135 113.2 224.7C112.846 224.403 112.46 224.144 112.05 223.93C111.57 223.719 111.178 223.348 110.94 222.88C110.935 222.869 110.928 222.86 110.918 222.854C110.908 222.847 110.897 222.844 110.885 222.844C110.873 222.844 110.862 222.847 110.852 222.854C110.842 222.86 110.835 222.869 110.83 222.88C111.2 223.88 112.1 224.28 112.83 224.93C113.222 225.394 113.577 225.889 113.89 226.41C114.219 226.877 114.688 227.227 115.23 227.41C115.31 227.47 115.39 227.37 115.33 227.3Z" fill="#263238"/>
<path d="M115.12 223.46C114.69 223.21 114.24 223.01 113.82 222.72C113.425 222.433 113.048 222.122 112.69 221.79C112.34 221.46 112.02 221.11 111.69 220.79C111.36 220.47 110.82 220.04 110.43 219.63C110.43 219.58 110.31 219.63 110.36 219.72C110.76 220.15 111.09 220.64 111.48 221.09C111.822 221.468 112.189 221.823 112.58 222.15C112.947 222.471 113.342 222.759 113.76 223.01C114.174 223.271 114.636 223.445 115.12 223.52V223.46Z" fill="#263238"/>
<path d="M115.1 219.92C114.22 219.609 113.388 219.175 112.63 218.63C111.9 218.09 111.2 217.5 110.51 216.91C110.46 216.91 110.38 216.91 110.43 216.99C111.008 217.739 111.681 218.412 112.43 218.99C112.797 219.267 113.197 219.499 113.62 219.68C114.083 219.859 114.567 219.98 115.06 220.04C115.13 220 115.17 219.94 115.1 219.92Z" fill="#263238"/>
<path d="M115.23 216.48C114.814 216.376 114.421 216.196 114.07 215.95C113.66 215.69 113.25 215.43 112.86 215.16C112.47 214.89 112.09 214.65 111.71 214.38C111.313 214.138 110.972 213.814 110.71 213.43C110.71 213.38 110.59 213.43 110.61 213.43C110.813 213.852 111.099 214.23 111.45 214.54C111.815 214.909 112.213 215.244 112.64 215.54C113.058 215.822 113.492 216.079 113.94 216.31C114.328 216.544 114.778 216.653 115.23 216.62C115.3 216.62 115.32 216.49 115.23 216.48Z" fill="#263238"/>
<path d="M114.71 212.37C114.3 212.19 113.9 212.01 113.51 211.8C113.12 211.59 112.75 211.37 112.38 211.14C112.01 210.91 111.59 210.66 111.21 210.4C111.205 210.395 111.199 210.392 111.192 210.39C111.185 210.387 111.178 210.386 111.171 210.387C111.164 210.387 111.158 210.389 111.151 210.392C111.145 210.395 111.14 210.4 111.135 210.405C111.13 210.41 111.127 210.416 111.125 210.423C111.122 210.43 111.121 210.437 111.122 210.444C111.122 210.451 111.124 210.457 111.127 210.464C111.13 210.47 111.135 210.475 111.14 210.48C111.452 210.812 111.786 211.123 112.14 211.41C112.507 211.683 112.895 211.928 113.3 212.14C113.694 212.363 114.101 212.56 114.52 212.73C114.929 212.919 115.37 213.031 115.82 213.06C115.88 213.06 115.92 212.96 115.82 212.92C115.47 212.699 115.098 212.515 114.71 212.37Z" fill="#263238"/>
<path d="M118.82 206.13C118.36 205.86 117.91 205.6 117.43 205.37C116.935 205.141 116.428 204.94 115.91 204.77C114.91 204.416 113.873 204.175 112.82 204.05C112.76 204.05 112.72 204.13 112.82 204.15C114.82 204.87 116.82 205.5 118.82 206.23C118.828 206.225 118.835 206.217 118.84 206.208C118.844 206.2 118.847 206.19 118.847 206.18C118.847 206.17 118.844 206.16 118.84 206.152C118.835 206.143 118.828 206.135 118.82 206.13Z" fill="#263238"/>
<path d="M119.71 202.69C119.247 202.433 118.758 202.229 118.25 202.08C117.174 201.801 116.071 201.64 114.96 201.6C114.89 201.6 114.86 201.69 114.96 201.71C115.96 201.94 117.03 202.16 118.04 202.45C118.545 202.591 119.042 202.758 119.53 202.95C120.01 203.15 120.44 203.45 120.91 203.67C120.91 203.67 120.99 203.67 120.97 203.61C120.614 203.224 120.186 202.911 119.71 202.69Z" fill="#263238"/>
<path d="M121.88 200.45C121.444 200.185 120.982 199.967 120.5 199.8C119.589 199.487 118.633 199.325 117.67 199.32C117.6 199.32 117.6 199.42 117.67 199.44C118.619 199.611 119.553 199.862 120.46 200.19C120.91 200.36 121.35 200.55 121.8 200.73C122.25 200.91 122.67 201.19 123.13 201.33C123.13 201.33 123.13 201.33 123.13 201.27C122.741 200.957 122.322 200.682 121.88 200.45Z" fill="#263238"/>
<path d="M123.19 198.14C122.75 198 122.31 197.88 121.86 197.76C121.431 197.619 120.981 197.551 120.53 197.56C120.46 197.56 120.46 197.65 120.53 197.67C121.38 197.94 122.22 198.23 123.06 198.51C123.811 198.835 124.528 199.234 125.2 199.7C125.2 199.7 125.27 199.7 125.2 199.64C124.691 198.955 123.992 198.433 123.19 198.14Z" fill="#263238"/>
<path d="M125.37 196.73C124.541 196.393 123.655 196.216 122.76 196.21C122.69 196.21 122.69 196.32 122.76 196.32C123.614 196.439 124.446 196.681 125.23 197.04C126.019 197.394 126.767 197.833 127.46 198.35C127.46 198.35 127.55 198.35 127.52 198.29C126.935 197.609 126.199 197.074 125.37 196.73Z" fill="#263238"/>
<path d="M129 197C128.858 196.86 128.704 196.733 128.54 196.62C128.227 196.387 127.892 196.186 127.54 196.02C126.788 195.712 126.007 195.477 125.21 195.32C125.14 195.32 125.12 195.42 125.21 195.43C125.982 195.603 126.731 195.868 127.44 196.22C127.789 196.384 128.124 196.578 128.44 196.8L128.89 197.14C129.021 197.271 129.165 197.388 129.32 197.49C129.32 197.49 129.42 197.49 129.4 197.42C129.294 197.256 129.158 197.114 129 197Z" fill="#263238"/>
<path d="M131 196.41C130.72 196.23 130.44 196.07 130.15 195.92C129.858 195.775 129.558 195.648 129.25 195.54C128.93 195.43 128.61 195.33 128.3 195.2C128.23 195.2 128.19 195.28 128.3 195.31C128.619 195.418 128.927 195.555 129.22 195.72L130.06 196.16C130.35 196.3 130.63 196.45 130.91 196.6C131.19 196.75 131.47 196.94 131.76 197.06C131.81 197.06 131.85 197.06 131.81 196.99C131.563 196.767 131.291 196.572 131 196.41Z" fill="#263238"/>
<path d="M134.19 255.16C134.19 255.16 121.87 239.28 108.99 239.16L111.26 248.54C111.26 248.54 118.82 247.6 133.64 257.98L134.19 255.16Z" fill="#244282"/>
<path d="M107.87 249.18C110.147 248.685 112.503 248.685 114.78 249.18C117.054 249.626 119.269 250.334 121.38 251.29C123.502 252.215 125.56 253.281 127.54 254.48L130.47 256.37L133.31 258.37L133.63 258.6L133.93 258.39C136.144 256.873 138.249 255.202 140.23 253.39C141.236 252.504 142.184 251.556 143.07 250.55C143.95 249.55 147.58 245.2 148.07 242.3C146.93 245.19 141.81 251.18 139.77 252.85C138.77 253.69 137.68 254.47 136.61 255.24C135.54 256.01 134.45 256.77 133.35 257.48H133.96L131.11 255.38C130.11 254.72 129.11 254.08 128.11 253.45C127.11 252.82 126.05 252.27 124.99 251.74C123.93 251.21 122.86 250.74 121.74 250.29C119.537 249.392 117.228 248.78 114.87 248.47C114.28 248.38 113.68 248.36 113.09 248.32C112.5 248.28 111.9 248.32 111.31 248.32C110.123 248.409 108.959 248.7 107.87 249.18Z" fill="#263238"/>
<path d="M105.09 255.63C106.267 254.593 107.373 253.477 108.4 252.29C109.442 251.121 110.398 249.877 111.26 248.57C110.088 249.61 108.986 250.726 107.96 251.91C106.918 253.082 105.959 254.325 105.09 255.63Z" fill="#263238"/>
<path d="M128.65 252.75C128.44 256.801 128.577 260.862 129.06 264.89C129.38 267.7 131.82 277.6 134.88 276.82C137.94 276.04 132 270.23 130.39 265.05C128.78 259.87 129.68 255.8 129.44 252.6L128.65 252.75Z" fill="#244282"/>
<g opacity="0.1">
<path d="M128.65 252.75C128.44 256.801 128.577 260.862 129.06 264.89C129.38 267.7 131.82 277.6 134.88 276.82C137.94 276.04 132 270.23 130.39 265.05C128.78 259.87 129.68 255.8 129.44 252.6L128.65 252.75Z" fill="black"/>
</g>
<path d="M139.77 251.81C141.292 255.513 142.594 259.303 143.67 263.16C144.35 265.63 145.67 274.79 142.81 275.16C139.95 275.53 143.01 268.64 142.61 263.74C142.21 258.84 139.94 254.74 139.06 251.94L139.77 251.81Z" fill="#244282"/>
<g opacity="0.1">
<path d="M139.77 251.81C141.292 255.513 142.594 259.303 143.67 263.16C144.35 265.63 145.67 274.79 142.81 275.16C139.95 275.53 143.01 268.64 142.61 263.74C142.21 258.84 139.94 254.74 139.06 251.94L139.77 251.81Z" fill="black"/>
</g>
</svg>
